<?xml version="1.0" standalone="no"?>
<!DOCTYPE svg PUBLIC "-//W3C//DTD SVG 1.1//EN" "http://www.w3.org/Graphics/SVG/1.1/DTD/svg11.dtd" >
<svg xmlns="http://www.w3.org/2000/svg">
<metadata>
This is a custom SVG webfont generated by Font Squirrel.
Copyright   : Created by Raph Levien using his own tools and FontForge Copyright 2006 Raph Levien Released under the SIL Open Font License httpscriptssilorgOFL
</metadata>
<defs>
<font id="webfontI1f8mNVA" horiz-adv-x="1228" >
<font-face units-per-em="2048" ascent="1679" descent="-369" />
<missing-glyph horiz-adv-x="500" />
<glyph unicode=" " />
<glyph unicode="!" d="M729 113.5q0 -58.5 -41 -99.5t-99.5 -41t-99 41t-40.5 99.5t40.5 99.5t99 41t99.5 -41t41 -99.5zM592 1585q37 0 68.5 -25.5t44.5 -76.5q10 -35 10 -97q0 -51 -10.5 -147t-12.5 -123l-43 -655h-119l-34 655q-4 80 -13.5 166t-9.5 125q0 63 14 102q33 76 105 76z" />
<glyph unicode="&#x22;" d="M934 1446v-225l4 -213h-166q-4 55 -3 102t1 102q6 8 1 55.5t-5 59.5v119q0 63 29.5 99t64.5 36q74 0 74 -135zM520 1446v-225l4 -213h-166q-4 55 -3 102t1 102q6 8 1 55.5t-5 59.5v119q0 63 30 99t64 36q74 0 74 -135z" />
<glyph unicode="#" d="M432 1481l143 6l-49 -408l262 4l46 385l147 7l-47 -390l215 2l-12 -114l-217 -2l-50 -400l236 4l-12 -110l-236 -4l-53 -428l-143 -8l51 434l-262 -4l-52 -422l-139 -6l51 426l-231 -4l10 108l234 4l47 404l-258 -2l8 112l264 4zM512 967l-49 -404l264 6l47 400z" />
<glyph unicode="$" d="M578 1544h153q2 -4 2 -8q0 -8 -8 -18.5t-8 -22.5v-90q219 -23 352 -182l-102 -129q-10 2 -13 16q-2 18 -2 20q-2 4 -10 15q-80 98 -225 119v-457q106 -35 157 -57q238 -102 238 -320q0 -139 -102.5 -253t-292.5 -138v-150h-139v146q-256 14 -416 188l102 142 q12 -6 10 -23q0 -16 9 -27q117 -125 295 -145v522q-76 25 -132 51q-92 45 -148 105.5t-72.5 110t-16.5 100.5q0 129 102.5 225t266.5 119v141zM717 649v-473q111 20 175 90t64 154q0 117 -116 182q-39 20 -123 47zM578 856v412q-104 -12 -158.5 -66.5t-54.5 -122.5 q0 -111 129 -184q35 -19 84 -39z" />
<glyph unicode="%" d="M948 1479h160l-827 -1479h-152zM352 1505q111 0 188.5 -89t77.5 -224q0 -131 -77.5 -219t-186.5 -88q-111 0 -188.5 89t-77.5 220q0 135 77.5 223t186.5 88zM348 1380q-45 0 -81 -41t-36 -137q0 -106 38 -148t83 -42t81 41t36 133q0 111 -38 152.5t-83 41.5zM1165 285 q0 -133 -77.5 -221.5t-187 -88.5t-187.5 88.5t-78 219.5q0 133 78 221t187.5 88t187 -88t77.5 -219zM899 469q-47 0 -85 -44t-38 -142q0 -96 38 -141.5t87 -45.5q47 0 85 43t38 140q0 102 -39 146t-86 44z" />
<glyph unicode="&#x26;" d="M563 1493q135 0 226.5 -90t91.5 -225q0 -117 -70 -224.5t-186 -171.5l266 -370q74 84 106 190q4 10 4 19q0 4 -2 14t-2 14q0 14 11 25l153 -107q-80 -145 -180 -276l166 -215l-139 -105l-131 209q-74 -92 -179.5 -148.5t-220.5 -56.5q-160 0 -265.5 106.5t-105.5 264.5 q0 139 81 266t219 201q-168 203 -168 369q0 133 95 222t230 89zM401 1180q0 -115 144 -295q82 45 131 121.5t49 158.5t-48 134.5t-116 52.5q-66 0 -113 -48t-47 -124zM487 702q-94 -61 -148 -153t-54 -187q0 -100 62.5 -166.5t154.5 -66.5q45 0 91 16.5t80 41t61.5 48 t41.5 41.5l15 17z" />
<glyph unicode="'" d="M762 1446v-225l4 -213h-201q-4 55 -3 101t-1 103q10 8 3 55.5t-7 59.5v119q0 63 37 99t78 36q90 0 90 -135z" />
<glyph unicode="(" d="M950 1581l72 -145q-8 -4 -18 -4q-6 0 -14.5 1t-12.5 1q-8 0 -21 -9q-207 -121 -324.5 -334.5t-117.5 -469.5q0 -279 137 -522.5t379 -383.5l-78 -125q-281 147 -441.5 423t-160.5 600.5t162 585.5t438 382z" />
<glyph unicode=")" d="M205 1432l45 147q289 -133 462 -400.5t173 -584.5q0 -319 -176.5 -592.5t-470.5 -415.5l-45 144q242 127 383 358t141 500q0 264 -138 491.5t-374 352.5z" />
<glyph unicode="*" d="M526 1231h193q-2 -12 -7 -29.5t-7 -34.5l-37 -356l376 172l64 -145l-408 -123l299 -359l-129 -102l-256 393l-266 -395l-129 104l309 357l-409 125l61 153l383 -180z" />
<glyph unicode="+" d="M547 1241h149v-405h406v-146h-406v-444h-149v444h-420v146h420v405z" />
<glyph unicode="," d="M745 47q0 -190 -251 -446l-82 71q68 61 118 148q35 57 35 98q0 49 -55 86q-66 43 -66 105q0 55 40 95t98 40q66 0 114.5 -54.5t48.5 -142.5z" />
<glyph unicode="-" d="M188 825h854v-157h-854v157z" />
<glyph unicode="." d="M727 109.5q0 -56.5 -41 -96.5t-99.5 -40t-99.5 40t-41 96.5t41 96.5t99.5 40t99.5 -40t41 -96.5z" />
<glyph unicode="/" d="M172 -31l743 1608l142 -72l-746 -1605z" />
<glyph unicode="0" d="M616 1489q88 0 171 -51.5t151 -145.5t108.5 -244.5t40.5 -333t-41.5 -328.5t-111.5 -233t-151 -133.5t-162 -46.5q-90 0 -175.5 51.5t-154 145.5t-110.5 239.5t-42 317.5t42 318.5t109.5 241.5t152.5 148.5t173 53.5zM848 1151q-45 94 -107.5 143t-126.5 49 q-121 0 -220 -160.5t-99 -426.5q0 -150 33 -279zM903 993l-520 -667q47 -96 111.5 -148.5t130.5 -52.5q53 0 104 31.5t98 96t77 179.5t30 262q0 166 -31 299z" />
<glyph unicode="1" d="M731 1481v-1483h-166v1276l-297 -88l-39 92l387 203h115z" />
<glyph unicode="2" d="M205 1249q66 111 176.5 175.5t236.5 64.5q180 0 305.5 -121t125.5 -295q0 -76 -24 -145.5t-69 -131t-80.5 -100.5t-89.5 -88q-6 -8 -46 -45l-58 -54l-57 -56q-39 -39 -65 -69l-59 -70q-34 -40 -62.5 -82t-53.5 -87h621q14 0 24 11q18 14 33 10v-166h-868v104 q88 172 189 299t241 252q51 45 70.5 63.5t64.5 68t65.5 84t39 87t18.5 103.5q0 119 -82 199.5t-201 80.5q-88 0 -154.5 -40.5t-99.5 -92.5q-6 -10 -9 -27.5t-11 -27.5z" />
<glyph unicode="3" d="M995 1108q0 -106 -60.5 -194.5t-160.5 -125.5q115 -43 184.5 -146t69.5 -234q0 -180 -125 -306.5t-330 -126.5q-113 0 -214 43t-175 125l125 150q10 -10 15.5 -32.5t15.5 -35.5q12 -14 33.5 -31.5t79 -43t118.5 -25.5q127 0 212 89t85 212q0 131 -96 207t-250 76 q-39 0 -76 -7v134q150 0 234 36q74 33 116 97.5t42 136.5q0 96 -73 162.5t-183 66.5q-150 0 -256 -112l-93 102q70 76 163 117t192 41q174 0 290.5 -110.5t116.5 -264.5z" />
<glyph unicode="4" d="M764 1481h139v-926h191v-147h-191v-408h-172v410h-596v122zM733 1217l-434 -662h434v662z" />
<glyph unicode="5" d="M272 1479h750v-150h-610l-23 -426q115 57 242 58q193 0 319.5 -131.5t126.5 -362.5t-133 -362.5t-334 -131.5q-133 0 -248.5 59.5t-189.5 168.5l147 110q12 -8 13.5 -28.5t5.5 -26.5q6 -14 35.5 -43t96.5 -61.5t138 -32.5q125 0 212 94t87 258q0 168 -88 260t-215 92 q-76 0 -149.5 -36.5t-126.5 -102.5l-107 43z" />
<glyph unicode="6" d="M702 1495q186 0 324 -135l-115 -127q-12 8 -21 27.5t-13 25.5q-8 8 -27 20.5t-60.5 27t-87.5 14.5q-39 0 -77.5 -10.5t-91 -46.5t-91.5 -94t-67.5 -167.5t-30.5 -253.5q49 84 133 131t180 47q166 0 286 -132t120 -353t-124 -357.5t-298 -136.5q-100 0 -193.5 50.5 t-156.5 146.5q-111 168 -111 502q0 274 64 454q63 182 189 274.5t269 92.5zM641 809q-82 0 -161 -54.5t-128 -144.5q-14 -205 73 -346t222 -141q104 0 179 88t75 250q0 176 -78 262t-182 86z" />
<glyph unicode="7" d="M207 1479h837v-93q-150 -344 -280 -694q-127 -342 -236 -692h-186q131 399 283 791q102 266 215 530h-633v158z" />
<glyph unicode="8" d="M633 1497q162 0 273.5 -101.5t111.5 -248.5q0 -106 -63.5 -202.5t-172.5 -153.5q127 -59 206 -170t79 -240q0 -170 -130 -288t-325 -118q-190 0 -319 115t-129 283q0 125 81 237.5t214 175.5q-102 51 -164 145.5t-62 201.5q0 152 116 258t284 106zM584 719 q-109 -45 -179.5 -134t-70.5 -192q0 -111 83 -189.5t204 -78.5q117 0 197.5 75.5t80.5 183.5t-86 199t-229 136zM621 1358q-96 0 -162 -61.5t-66 -149.5q0 -55 26.5 -105.5t64.5 -84t77 -59.5t66 -36l26 -12q90 47 146.5 125t56.5 162q0 92 -68.5 156.5t-166.5 64.5z" />
<glyph unicode="9" d="M537 -25q-190 0 -328 136l115 127q14 -8 21 -29t17 -29q6 -6 22.5 -15t63 -23.5t93.5 -14.5q88 0 167.5 49t125.5 154q51 125 59 366q-51 -76 -132 -117.5t-173 -41.5q-166 0 -286 130t-120 337q0 211 124 350t300 139q125 0 235.5 -81t166.5 -241q51 -150 51 -413 q0 -270 -64 -439q-66 -170 -190.5 -257t-267.5 -87zM604 682q80 0 156 49t125 131q18 215 -67 349.5t-216 134.5q-106 0 -182 -90.5t-76 -245.5q0 -156 77 -242t183 -86z" />
<glyph unicode=":" d="M727 867.5q0 -56.5 -41 -96.5t-99.5 -40t-99.5 40t-41 96.5t41 96.5t99.5 40t99.5 -40t41 -96.5zM727 109.5q0 -56.5 -41 -96.5t-99.5 -40t-99.5 40t-41 96.5t41 96.5t99.5 40t99.5 -40t41 -96.5z" />
<glyph unicode=";" d="M745 47q0 -190 -251 -446l-82 71q68 61 118 148q35 57 35 98q0 49 -55 86q-66 43 -66 105q0 55 40 95t98 40q66 0 114.5 -54.5t48.5 -142.5zM727 867.5q0 -56.5 -41 -96.5t-99.5 -40t-99.5 40t-41 96.5t41 96.5t99.5 40t99.5 -40t41 -96.5z" />
<glyph unicode="&#x3c;" d="M1108 1178v168l-1006 -529v-115l1012 -589v178l-829 467z" />
<glyph unicode="=" d="M127 1040h975v-145h-975v145zM127 549h975v-146h-975v146z" />
<glyph unicode="&#x3e;" d="M121 1178v168l1005 -529v-115l-1011 -589v178l829 467z" />
<glyph unicode="?" d="M780 105.5q0 -56.5 -41 -96.5t-99 -40t-99 40t-41 96.5t41 96.5t99 40t99 -40t41 -96.5zM172 1331q76 117 199 182.5t258 65.5q195 0 308.5 -122t113.5 -296q0 -53 -12.5 -101t-30 -81t-47 -67.5t-49 -52t-53.5 -45.5l-44 -36q-66 -59 -84 -112.5t-18 -128.5v-99h-156v99 q0 96 19.5 161.5t91.5 143.5l47 48q37 38 55 59.5t44 60.5t38 78.5t12 85.5q0 104 -72.5 176.5t-177.5 72.5q-90 0 -178 -55t-143 -149z" />
<glyph unicode="@" d="M1053 72q-152 -98 -332 -99q-92 0 -179 27t-169 87t-143.5 147.5t-98.5 219.5t-37 291q0 156 35 285t91 214t131 144.5t154 86t159 26.5q133 0 242.5 -69.5t164.5 -192.5q25 -53 37 -117.5t14 -108.5t2 -116v-481h-143v90q-92 -111 -238 -111q-127 0 -217 90t-90 220 q0 98 58.5 184t167.5 129q94 37 278 37h35q0 133 -92 226t-226 93q-80 0 -153.5 -38t-136 -111.5t-99.5 -196.5t-37 -276q0 -166 45.5 -294t121 -202t160.5 -110.5t175 -36.5q141 0 256 77zM981 936h-39q-57 0 -91 -2t-85 -15.5t-88 -37.5q-94 -66 -94 -170q0 -76 54 -130.5 t134 -54.5q53 0 100.5 28t73.5 81q16 33 24.5 82t9.5 76.5t1 97.5v45z" />
<glyph unicode="A" d="M55 -2l523 1507h18l571 -1505h-172l-164 432h-469l-143 -434h-164zM795 561l-209 563l-191 -563h400z" />
<glyph unicode="B" d="M135 1479h420q182 0 276 -41q102 -45 159 -132t57 -188q0 -106 -59.5 -195t-160.5 -130q125 -41 201 -147.5t76 -235.5q0 -117 -64.5 -216.5t-181.5 -148.5q-106 -45 -305 -45h-418v1479zM299 1337v-471h231q135 0 205 31q68 29 106 84t38 121t-39 123t-111 86 q-66 27 -197 26h-233zM299 727v-582h283q125 0 190 31q76 33 117 100.5t41 149.5t-44 154.5t-124 109.5q-76 37 -221 37h-242z" />
<glyph unicode="C" d="M680 1491q147 0 270 -80t183 -213l-158 -78q-10 8 -10 23v10v8q0 10 -9 25q-45 80 -120.5 126t-161.5 46q-166 0 -280.5 -165t-114.5 -448q0 -289 118.5 -457.5t290.5 -168.5q88 0 169 48t132 132l123 -80q-70 -113 -185.5 -178.5t-248.5 -65.5q-78 0 -152.5 22.5 t-149.5 79t-132.5 140.5t-92 216t-34.5 298q0 170 36.5 305t94 218t134.5 138.5t149.5 77t148.5 21.5z" />
<glyph unicode="D" d="M147 1479h347q113 0 191.5 -15.5t152.5 -64.5q137 -88 205.5 -261t68.5 -397q0 -244 -85 -423t-243 -261q-72 -37 -143.5 -48t-175.5 -11h-318v1481zM305 1337v-1208h152q88 0 150.5 12.5t125.5 55.5q211 141 211 522q0 385 -182 536q-61 51 -126 66.5t-153 15.5h-178z " />
<glyph unicode="E" d="M160 1481h907v-148h-750v-485h619v-152h-619v-549h744v-147h-901v1481z" />
<glyph unicode="F" d="M205 1481h852v-146h-684v-465h553v-143h-553v-727h-168v1481z" />
<glyph unicode="G" d="M678 1493q137 0 251.5 -66.5t178.5 -181.5l-117 -119q-14 10 -30 48q-37 76 -112 125t-171 49q-98 0 -188.5 -54.5t-145.5 -156.5q-74 -141 -74 -381q0 -342 142 -504q113 -129 280 -129q139 0 266 90v352h-268v144h422v-578q-209 -154 -434 -154q-82 0 -159 23 t-153.5 79t-133 138t-91.5 212t-35 292q0 186 41 329.5t102.5 224.5t143.5 132t149.5 68.5t135.5 17.5z" />
<glyph unicode="H" d="M150 1479h184q2 -6 2 -11q0 -8 -7 -20t-7 -27v-575h579v633h180q2 -4 2 -11q0 -8 -8 -19t-8 -24v-1427h-168v707h-577v-705h-172v1479z" />
<glyph unicode="I" d="M229 1479h734v-140h-293v-1204h307v-137h-764v139h291v1202h-275v140z" />
<glyph unicode="J" d="M428 1479h676v-140h-227v-843q0 -70 -2.5 -112t-15.5 -103.5t-40 -110.5q-51 -94 -140 -145.5t-198 -51.5q-98 0 -188 43t-156 121l111 135q8 -6 9 -21t5 -22q8 -10 31.5 -31.5t80 -49t111.5 -27.5q111 0 174 94q27 37 39.5 92t13.5 87t1 100v845h-285v140z" />
<glyph unicode="K" d="M121 1481h198q2 -14 -14 -35q-8 -10 -8 -27v-622l618 694q49 -12 123 -12h62l-559 -639l598 -842l-211 -8l-514 749l-117 -127v-612h-176v1481z" />
<glyph unicode="L" d="M178 1479h193q2 -16 -9 -37q-12 -25 -12 -43v-1258h713v-143h-885v1481z" />
<glyph unicode="M" d="M117 1479h131l366 -723l373 725h125v-1483h-158v1118l-319 -596h-64l-299 588v-1110h-155v1481z" />
<glyph unicode="N" d="M139 0v1479h162l621 -1096v1098h176q2 -14 -6 -31q-10 -18 -11 -33v-1419h-131l-651 1165v-1163h-160z" />
<glyph unicode="O" d="M1139 737q0 -295 -88 -473q-70 -141 -185.5 -214t-242.5 -73q-72 0 -142.5 23t-142.5 80t-126 141t-88 218t-34 302t35 301.5t89 216t126 138t141.5 77t141.5 21.5q127 0 241.5 -70.5t184.5 -207.5q90 -179 90 -480zM614 1339q-61 0 -121.5 -29.5t-115.5 -92t-89 -180 t-34 -273.5q0 -168 34 -295t90 -195.5t117.5 -101.5t129.5 -33q82 0 157.5 49.5t124.5 151.5q66 139 66 375q0 248 -58 391q-49 119 -131 176t-170 57z" />
<glyph unicode="P" d="M160 1479h450q59 0 96 -2t88.5 -14.5t96.5 -35.5q100 -51 155.5 -150t55.5 -215t-54.5 -213t-154.5 -149q-94 -47 -270 -47h-291v-653h-172v1479zM332 1323l-2 -524h299q113 0 172 30q63 31 97 92.5t34 133.5q0 74 -37 138t-102 99q-63 31 -183 31h-278z" />
<glyph unicode="Q" d="M614 1343q-63 0 -123.5 -30.5t-116 -94t-89 -180t-33.5 -272.5q0 -168 32.5 -296t89 -198.5t120 -105.5t131.5 -35q43 0 86 12.5t93 51t87 100t62.5 170t25.5 248.5q0 246 -59 395q-51 121 -134.5 178t-171.5 57zM1139 733q0 -295 -88 -471q-59 -119 -150.5 -188.5 t-198.5 -89.5q2 -35 8.5 -62.5t24 -56.5t53 -44.5t89.5 -15.5q29 0 94 5.5t98 7.5l-4 -162h-92h-87q-26 0 -66 4t-67.5 11t-54.5 22q-141 70 -141 279v12q-68 10 -131.5 39.5t-125.5 90t-107.5 143.5t-74 208t-28.5 276q0 168 35 301.5t89 216t126 138t141.5 77t141.5 21.5 q127 0 242.5 -71.5t185.5 -211.5q88 -176 88 -479z" />
<glyph unicode="R" d="M154 1479h436q59 0 97 -2t90 -13.5t95 -33.5q100 -51 154.5 -146.5t54.5 -210.5q0 -147 -83 -262t-218 -152l342 -659h-186l-328 653h-286v-653h-168v1479zM322 1323v-524h286q113 0 172 30q63 31 97 92.5t34 133.5q0 74 -36.5 138t-102.5 99q-63 31 -182 31h-268z" />
<glyph unicode="S" d="M1053 1303l-105 -142q-12 4 -12 19.5t-6 23.5q-45 66 -123 106t-178 40q-121 0 -194 -63.5t-73 -153.5q0 -131 152 -220q49 -31 146.5 -68.5t183.5 -79.5t141 -95q115 -106 115 -267q0 -76 -26.5 -147.5t-83 -136t-156 -104.5t-226.5 -40q-291 0 -465 191l99 170 q10 -6 10 -23q0 -16 8 -24q53 -70 146.5 -117t205.5 -47q152 0 238 81t86 187q0 127 -125 205q-43 27 -214 96.5t-247 124.5q-158 117 -157 289q0 156 126.5 267.5t323.5 111.5q121 0 228.5 -48t181.5 -136z" />
<glyph unicode="T" d="M94 1481h1024v-150h-436v-1333h-168v1333h-420v150z" />
<glyph unicode="U" d="M139 1479h187q2 -6 2 -13q0 -10 -15 -32q-10 -12 -10 -31v-895q0 -141 35 -217q39 -84 115.5 -130t167.5 -46q90 0 165.5 45t114.5 129q39 78 39 225v965h158v-961q0 -100 -10.5 -172t-49.5 -141q-61 -113 -173.5 -172.5t-248.5 -59.5q-133 0 -246.5 59.5t-172.5 170.5 q-37 70 -47.5 139.5t-10.5 167.5v969z" />
<glyph unicode="V" d="M80 1481h174l379 -1137l358 1135h164l-496 -1489h-75z" />
<glyph unicode="W" d="M61 1479h154l160 -1000l237 891h52l239 -895l135 1004h140l-234 -1489h-65l-254 977l-258 -977h-68z" />
<glyph unicode="X" d="M920 1481h165l-374 -723l419 -758h-186l-330 586l-315 -586h-182l403 754l-395 727h178l311 -561z" />
<glyph unicode="Y" d="M88 1481h188l363 -719l328 717h176l-420 -895v-584h-180v584z" />
<glyph unicode="Z" d="M168 1479h913l-2 -117l-731 -1217h699q16 0 35.5 8.5t35.5 6.5v-162h-979v117l746 1214h-717v150z" />
<glyph unicode="[" d="M332 1589h678v-141h-527v-1524h529v-135h-680v1800z" />
<glyph unicode="\" d="M1057 -31l-744 1608l-141 -72l746 -1605z" />
<glyph unicode="]" d="M897 1589h-678v-141h526v-1524h-528v-135h680v1800z" />
<glyph unicode="^" d="M242 870l362 609h51l322 -607l-127 -59l-229 416l-261 -416z" />
<glyph unicode="_" d="M102 -45h1024v-145h-1024v145z" />
<glyph unicode="`" d="M600 723l-129 225l-123 205l-4 371q33 -47 62.5 -102.5t54.5 -94.5q14 -37 36.5 -65.5t28.5 -42.5l70 -119q37 -63 57.5 -166t22.5 -178q2 -168 -76 -33z" />
<glyph unicode="a" d="M236 956q147 152 387 152q127 0 225 -46t151 -134q35 -55 44.5 -114.5t9.5 -141.5v-672h-162v119q-178 -145 -389 -146q-164 0 -264.5 91.5t-100.5 216.5q0 96 62.5 180t185.5 129q63 25 154.5 36t145.5 12t169 1h35v39q0 129 -35 186q-63 104 -223 105q-197 0 -312 -121 zM895 508h-39q-12 0 -85 1q-36 1 -62 0.5t-41 -0.5q-31 -1 -82 -5t-86 -12q-96 -23 -143.5 -79.5t-47.5 -121.5q0 -76 61.5 -131.5t166.5 -55.5q92 0 166.5 41t117.5 86q35 37 52.5 78t19.5 64.5t2 62.5v72z" />
<glyph unicode="b" d="M162 1579h200q4 -14 -12 -27q-14 -10 -14 -26v-608q51 90 141 141t193 51q82 0 158.5 -34t139 -100.5t100.5 -175t38 -245.5q0 -141 -39 -255t-104.5 -183.5t-145.5 -106.5t-164 -37q-98 0 -183 45t-138 125l-60 -143h-110v1579zM610 963q-82 0 -148.5 -43t-96.5 -115 q-29 -70 -29 -227q0 -164 6 -216q10 -72 42 -123t75 -73.5t78.5 -30.5t70.5 -8q37 0 75 8t83 35t80 68t58.5 113.5t23.5 168.5q0 109 -23.5 192t-58.5 129t-80 75.5t-82 38t-74 8.5z" />
<glyph unicode="c" d="M1104 905l-121 -141q-10 8 -11 28.5t-4 26.5t-13.5 19.5t-35 35t-55 41t-78 33t-98.5 13.5q-154 0 -256 -110t-102 -292q0 -188 106.5 -309t265.5 -121q172 0 287 131l98 -115q-78 -84 -181 -128t-218 -44q-231 0 -382.5 162t-151.5 406.5t153.5 404.5t390.5 160 q129 0 234.5 -53.5t171.5 -147.5z" />
<glyph unicode="d" d="M901 926v653h182q0 -14 -12 -35q-10 -16 -10 -33l2 -1411q0 -61 10 -100h-170q-10 31 -10 80v94q-51 -92 -141 -145.5t-195 -53.5q-80 0 -154.5 35t-137 102.5t-100.5 181.5t-38 257q0 147 41 261t109.5 176.5t146.5 93t160 30.5q111 0 194.5 -50t122.5 -136zM592 973 q-51 0 -100.5 -19.5t-95.5 -61.5t-74.5 -123t-28.5 -189q0 -127 29.5 -220.5t78 -141.5t97.5 -69.5t100 -21.5q88 0 162 55.5t104 149.5q23 72 23 198q0 162 -19 232q-29 109 -109.5 160t-166.5 51z" />
<glyph unicode="e" d="M635 1110q70 0 135.5 -19.5t125.5 -62.5t105.5 -121t61.5 -182q12 -65 12 -132q0 -37 -4 -75h-770q6 -115 43 -198.5t93.5 -125.5t113.5 -61.5t119 -19.5q172 0 280 123l94 -93q-139 -168 -389 -168q-227 0 -373.5 145.5t-146.5 409.5q0 143 41 256t111.5 182.5 t159 105.5t188.5 36zM307 649h596q3 22 3 43q0 106 -69 189q-83 98 -214 98q-47 0 -94.5 -16.5t-94.5 -52.5t-81 -103.5t-46 -157.5z" />
<glyph unicode="f" d="M836 1591q209 0 331 -147l-77 -158q-6 0 -12.5 4t-6.5 17q-2 20 -8 26q-35 55 -98.5 90t-137.5 35q-70 0 -128 -30.5t-91 -90.5q-18 -33 -27.5 -78t-10.5 -72.5t-1 -82.5v-84h355v-135h-355v-885h-163v885h-236v135h236v106q0 88 11 151.5t48 125.5q55 90 154.5 139 t216.5 49z" />
<glyph unicode="g" d="M319 745.5q0 -98.5 70 -168t169 -69.5t169 69.5t70 168t-70 169t-169 70.5t-169 -70.5t-70 -169zM569 1120q152 0 256 -104q116 98 263 98q19 0 38 -2l21 -139q-31 6 -64 6q-100 0 -188 -53q55 -84 55 -185q0 -150 -114.5 -260t-276.5 -110q-70 0 -137 24 q-78 -63 -78 -121q0 -53 66 -71q51 -14 155 -15q20 0 89 2q46 1 76 2q15 0 26 -1q33 -1 85 -9t91 -24q84 -33 126 -96.5t42 -139.5q0 -57 -26.5 -112.5t-83 -105.5t-157 -81t-231.5 -31q-137 0 -236.5 23t-152.5 61.5t-77.5 81.5t-24.5 90q0 127 178 240q-88 47 -88 145 q0 104 123 209q-74 49 -117 127t-43 166q0 158 120.5 271.5t284.5 113.5zM403 57q-135 -74 -135 -168q0 -90 107 -133q90 -35 223 -35q156 0 244 48q102 55 102 143q0 43 -30.5 80t-98.5 47q-37 6 -125 6h-104q-115 4 -183 12z" />
<glyph unicode="h" d="M186 0v1577h197q2 -4 2 -6q0 -10 -16 -27q-8 -8 -9 -22v-629q63 96 158.5 156.5t202.5 60.5q94 0 171 -50t118 -140q39 -90 39 -263v-657h-168v653q0 51 -2 83t-16.5 78t-41.5 79q-57 70 -147 70q-76 0 -147.5 -49.5t-112.5 -102.5q-53 -72 -54 -186v-625h-174z" />
<glyph unicode="i" d="M272 1085h435v-948h254v-137h-703v137h277v809h-263v139zM624.5 1556q51.5 0 87.5 -35.5t36 -86t-36 -86t-87.5 -35.5t-87 35.5t-35.5 86t35.5 86t87 35.5z" />
<glyph unicode="j" d="M319 1085h576v-1009q0 -178 -49 -273q-53 -104 -155.5 -160.5t-223.5 -56.5q-209 0 -332 152l111 147q8 -6 12 -22.5t8 -20.5q10 -14 29.5 -35.5t71 -47t110.5 -25.5q70 0 129.5 35.5t87.5 101.5q29 59 29 172v901h-404v141zM811 1556q51 0 87 -35.5t36 -86t-36 -86 t-87 -35.5t-87 35.5t-36 86t36 86t87 35.5z" />
<glyph unicode="k" d="M178 1577h195q2 -14 -15 -35q-8 -10 -8 -26v-930l543 504q49 -12 127 -13h61l-456 -430l532 -649h-16l-205 -8l-442 553l-144 -133v-412h-172v1579z" />
<glyph unicode="l" d="M221 1577h479v-1440h320v-137h-813v137h321v1303h-307v137z" />
<glyph unicode="m" d="M111 0v1083h157l-2 -106q39 59 98.5 96t122.5 37q72 0 126.5 -45t66.5 -113q31 72 97.5 115t146.5 43q113 0 168 -86q23 -31 33 -75t11 -74.5t1 -86.5v-18v-772h-162v770v30v33q0 12 -1 32t-4 34t-9 29q-27 59 -87 59q-68 0 -126 -98q-45 -76 -46 -170v-717h-159v754 q0 109 -11 143q-14 41 -41.5 61.5t-58.5 20.5q-78 0 -131 -100q-35 -63 -35 -156v-723h-155z" />
<glyph unicode="n" d="M182 0v1083h174v-190q63 96 158.5 156.5t202.5 60.5q94 0 171 -50t118 -140q39 -90 38 -263v-657h-167v653q0 51 -2.5 83t-16.5 78t-41 79q-57 70 -147 70q-76 0 -147.5 -49.5t-112.5 -102.5q-53 -72 -54 -186v-625h-174z" />
<glyph unicode="o" d="M1112 537q0 -258 -142.5 -412t-344.5 -154q-209 0 -358.5 160t-149.5 404q0 246 150.5 409.5t361.5 163.5q94 0 180 -37t154.5 -106.5t108.5 -180t40 -247.5zM618 963q-133 0 -227 -112t-94 -302q0 -195 97.5 -312.5t232.5 -117.5q127 0 220 108.5t93 302.5 q0 209 -96.5 321t-225.5 112z" />
<glyph unicode="p" d="M162 1083h174v-165q55 88 146 139t196 51q84 0 159.5 -34t140 -98.5t102.5 -174t38 -246.5q0 -143 -40 -258t-105.5 -184.5t-144 -105.5t-164.5 -36q-98 0 -184.5 46t-141.5 126v-538h-174zM616 963q-84 0 -152.5 -43t-98.5 -115q-29 -68 -29 -213q0 -100 1 -142t8 -92.5 t22 -85.5q31 -72 99.5 -110.5t147.5 -38.5q37 0 74 8t84 33.5t83 66.5t60.5 116t24.5 171q0 113 -24.5 198t-60.5 130t-84 72.5t-84 36t-71 8.5z" />
<glyph unicode="q" d="M907 926v157h162v-1478h-170v569q-51 -90 -140 -144.5t-192 -54.5q-186 0 -316 160t-130 418q0 133 40 241.5t106.5 176t149.5 104.5t175 37q199 0 297 -154q18 -28 18 -32zM598 973q-123 0 -214 -99.5t-91 -295.5q0 -217 92 -334t219 -117q88 0 162 55.5t104 149.5 q23 70 23 196q0 186 -27 260q-33 92 -109.5 138.5t-158.5 46.5z" />
<glyph unicode="r" d="M256 1083h178l-6 -209q51 113 158.5 174.5t232.5 61.5q174 0 289 -119l-80 -164q-10 10 -23 30l-18 26q-63 80 -178 80q-188 0 -305 -183q-35 -55 -52.5 -105t-20.5 -78t-3 -71v-528h-172v1085z" />
<glyph unicode="s" d="M1047 940l-101 -149q-12 2 -12 18t-6 22q-41 55 -119 102.5t-180 47.5q-94 0 -162 -42t-68 -105q0 -80 107 -134q43 -18 187.5 -61t211.5 -80q160 -90 160 -246q0 -133 -121 -235.5t-332 -102.5q-272 0 -456 172l98 170q12 -6 11 -22t5 -25q27 -29 63 -58.5t114.5 -61 t162.5 -31.5q119 0 199 48t80 124q0 86 -109 137q-45 23 -154.5 56.5t-136.5 43.5l-51 20q-18 7 -64 32.5t-74 53.5t-51.5 74t-23.5 99q0 125 117 214t299 89q252 0 406 -170z" />
<glyph unicode="t" d="M467 1374l186 31q2 -14 1 -21.5t-7 -20.5t-8 -22q-4 -27 -11 -91l-12 -113l-4 -52h355v-141h-357q-20 -211 -20 -424q0 -156 6 -209q12 -90 63.5 -132t118.5 -42q111 0 244 99l53 -136q-166 -121 -346 -120q-166 0 -248 114q-29 41 -44 97.5t-17 95.5t-2 102 q0 279 22 555h-254l2 139h258z" />
<glyph unicode="u" d="M170 1083h172v-604q0 -158 39 -233q31 -63 86 -98t121 -35q76 0 143.5 45t106.5 114q43 80 43 215v596h172v-985q0 -59 12 -98h-180q-5 25 -5 60q0 12 1 24l2 82q-53 -90 -143.5 -141.5t-190.5 -51.5q-109 0 -200 58.5t-138 163.5q-43 98 -43 284z" />
<glyph unicode="v" d="M115 1085h204q2 -10 -3 -25.5t-5 -21.5t4 -14l314 -793l174 404q113 262 147 450h154q-43 -197 -162 -475l-264 -618h-133z" />
<glyph unicode="w" d="M57 1085h174q6 -16 -4 -47q-6 -20 -2 -43l158 -782l186 770h105l229 -768q68 446 86 606q15 131 15 223v39h157q-70 -547 -180 -1085h-160l-200 702l-191 -702h-154z" />
<glyph unicode="x" d="M881 1085h174l-353 -528l400 -557h-195l-299 422l-282 -422h-193l381 551l-375 534h187l284 -401z" />
<glyph unicode="y" d="M129 1083h213q0 -12 -5 -27.5t-5 -23.5t4 -18l317 -799l207 582q61 170 82 288h178q-39 -127 -108 -313l-338 -895q-43 -117 -94 -172q-104 -117 -271 -117q-141 0 -235 90l88 154q8 -6 13 -21.5t5 -17.5q6 -8 18.5 -21.5t43 -28.5t65.5 -15q86 0 152 71q39 39 76 125 l34 80z" />
<glyph unicode="z" d="M188 1085h844v-116l-661 -824h645q16 0 35.5 8.5t35.5 6.5v-162h-948v117l672 821h-623v149z" />
<glyph unicode="{" d="M145 674h48q109 0 159 53q61 66 62 201q0 29 -3 85t-3 85q0 213 116 319q16 14 36 26.5l36 22t39.5 17.5t38 12t42 7t40 5t43 3t39.5 1h42h38h71v-135h-82q-16 0 -56 1t-56.5 0t-43 -3t-46 -9t-37.5 -19q-96 -59 -97 -222q0 -27 4.5 -82t4.5 -84q0 -113 -39 -190 q-53 -111 -168 -160q84 -29 142 -115.5t58 -252.5q0 -39 -4 -104.5t-4 -94.5q0 -178 99 -246l20 -12q10 -6 24 -10l22 -7q9 -3 25.5 -5.5t26 -3.5t28.5 -1h27h30h32h88v-133h-86h-42h-44q-10 0 -38.5 1t-40 2l-36 3t-38 6.5t-34 9.5t-34.5 12l-32 16q-17 9 -32 22 q-133 100 -133 344q0 49 5.5 126t5.5 111q0 156 -64 218q-47 47 -149 47h-50v133z" />
<glyph unicode="|" d="M535 1548h159v-1906h-159v1906z" />
<glyph unicode="}" d="M1083 674h-47q-109 0 -159 53q-61 66 -62 201q0 29 3 85t3 85q0 213 -116 319q-16 14 -36 26.5l-36.5 22t-40 17.5t-37.5 12t-42 7t-40 5t-43 3t-39 1h-42h-38h-71v-135h82q16 0 56 1t56.5 0t43 -3t46 -9t37.5 -19q96 -59 96 -222q0 -27 -4 -82t-4 -84q0 -113 39 -190 q53 -111 168 -160q-84 -29 -142.5 -115.5t-58.5 -252.5q0 -39 4.5 -104.5t4.5 -94.5q0 -178 -99 -246l-20 -12q-10 -6 -24 -10l-22 -7q-9 -3 -25.5 -5.5t-26 -3.5t-28.5 -1h-27h-31h-31h-88v-133h86h42h44q10 0 38.5 1t40 2l36 3t38 6.5t34 9.5t34.5 12l32 16q17 9 31 22 q133 100 133 344q0 49 -5 126t-5 111q0 156 64 218q47 47 149 47h49v133z" />
<glyph unicode="~" d="M238 811l-119 78q55 94 142 153.5t183 59.5q66 0 125.5 -27.5t95 -61.5t83 -61.5t90.5 -27.5q55 0 100 37.5t102 115.5l109 -90q-57 -88 -142 -153.5t-186 -65.5q-66 0 -122 29.5t-90 65.5t-80 65.5t-95 29.5q-106 0 -196 -147z" />
<glyph unicode="&#xa0;" />
<glyph unicode="&#xa1;" d="M449 1444.5q0 58.5 40.5 99.5t99 41t99.5 -41t41 -99.5t-41 -99t-99.5 -40.5t-99 40.5t-40.5 99zM586 -27q-37 0 -69 26t-44 77q-10 35 -10 96q0 51 10 147.5t12 122.5l43 656h119l35 -656q4 -80 13.5 -166t9.5 -124q0 -63 -17 -103q-30 -76 -102 -76z" />
<glyph unicode="&#xa2;" d="M696 1481l160 -17q2 -14 -8 -32.5t-12 -32.5l-27 -195q186 -37 283 -184l-105 -135q-10 8 -10 24q0 27 -8 37q-68 80 -178 115l-109 -832q182 0 311 133l86 -114q-156 -170 -399 -170h-18l-35 -264l-138 16l33 268q-176 49 -281.5 196.5t-105.5 352.5q0 240 145.5 397.5 t383.5 169.5zM543 256l102 821q-150 -10 -246 -118.5t-96 -288.5q0 -154 64.5 -262.5t175.5 -151.5z" />
<glyph unicode="&#xa3;" d="M1012 1358l-105 -131q-10 8 -18 25.5t-12 23.5l-29 22q-18 14 -61.5 29.5t-88.5 15.5q-102 0 -177 -76.5t-75 -215.5q0 -63 19 -154h235v-135h-202q33 -137 32 -232q0 -176 -88 -317q31 6 64 6q82 0 205 -49t186 -49q100 0 176 65l64 -123q-125 -98 -248 -98 q-74 0 -204 53.5t-218 53.5q-123 0 -293 -90l-61 135q68 31 90 42t44.5 30.5t41.5 48.5q82 127 82 288q0 90 -35 236h-156v135h123q-16 84 -16 152q0 193 121.5 311.5t293.5 118.5q179 0 310 -121z" />
<glyph unicode="&#xa4;" d="M616.5 1057q-98.5 0 -169 -69.5t-70.5 -168t70.5 -168t169 -69.5t168 69.5t69.5 168t-69.5 168t-168 69.5zM182 1167l84 84l133 -133q98 70 217 70q117 0 213 -68l132 131l83 -84l-131 -131q72 -98 72 -217t-70 -215l129 -131l-83 -84l-132 131q-96 -70 -213 -69 q-121 0 -217 71l-133 -133l-84 84l133 133q-68 96 -67 213q0 117 67 213z" />
<glyph unicode="&#xa5;" d="M106 1481h185l344 -619l315 617h176l-413 -779v-49h319v-135h-319v-149h319v-134h-319v-233h-162v233h-332v134h332v149h-332v135h332v49z" />
<glyph unicode="&#xa6;" d="M535 1548h159v-848h-159v848zM694 -358h-159v823h159v-823z" />
<glyph unicode="&#xa7;" d="M999 1384l-133 -118q-8 6 -11 14t-4 18.5t-3 16.5q-18 51 -74.5 95t-142.5 44q-92 0 -153.5 -53t-61.5 -129q0 -111 125 -176q35 -18 119.5 -49t134.5 -54q115 -55 166 -125.5t51 -142.5q0 -74 -48.5 -135.5t-125.5 -93.5q74 -51 112.5 -124t38.5 -153 q0 -141 -113.5 -244.5t-289.5 -103.5q-121 0 -229.5 53t-182.5 150l125 145q8 -4 11 -10t5 -16.5t4 -14.5q4 -12 20.5 -32.5t47.5 -49t84 -48t115 -19.5q104 0 168.5 54t64.5 132q0 104 -108 168q-47 29 -169 64.5t-184 72.5q-150 90 -149 230q0 80 53 144t139 95 q-80 49 -118.5 121t-38.5 147q0 137 111.5 236.5t275.5 99.5q117 0 215 -56.5t153 -152.5zM489 946q-49 -16 -78.5 -57t-29.5 -92q0 -113 127 -174q39 -18 121 -42t119 -38q39 18 62.5 56t23.5 85q0 119 -138 186q-33 16 -105.5 40t-101.5 36z" />
<glyph unicode="&#xa8;" d="M526 1457q0 -50 -34.5 -85t-85 -35t-85 35t-34.5 85t34.5 85t85 35t85 -35t34.5 -85zM948 1457q0 -50 -34.5 -85t-84 -35t-84 35t-34.5 85t34.5 85t84 35t84 -35t34.5 -85z" />
<glyph unicode="&#xa9;" d="M643 1006q109 0 190.5 -61.5t104.5 -158.5l-123 -47q-8 10 -8 28v21q-4 8 -12.5 22.5t-25.5 33t-49 31t-73 12.5q-90 0 -155.5 -56.5t-65.5 -160.5q0 -106 65.5 -181t157.5 -75q55 0 103.5 28.5t74.5 77.5l105 -69q-49 -76 -127 -119t-166 -43q-143 0 -244.5 107.5 t-101.5 256.5q0 152 102.5 252.5t247.5 100.5zM627.5 45q-236.5 0 -405.5 176t-169 428q0 254 169 431t407 177q236 0 404.5 -176t168.5 -430q0 -252 -169 -429t-405.5 -177zM162 651q0 -211 138 -357.5t330.5 -146.5t331 146.5t138.5 359.5q0 211 -138.5 357.5t-331 146.5 t-330.5 -147.5t-138 -358.5z" />
<glyph unicode="&#xaa;" d="M311 1343q117 133 320 134q98 0 174 -40t113 -116q27 -59 26 -170v-518h-149v80q-109 -102 -254 -103q-121 0 -200 73t-79 175q0 63 36 122.5t105 96.5q16 10 35 17.5t40.5 12.5t36.5 9t42 6t39 3t42 2t39 1h42h39h35v29q0 82 -27 123q-45 70 -150 70q-147 0 -223 -105z M799 1006h-39q-166 0 -203 -7q-74 -14 -107.5 -52t-33.5 -83q0 -51 41 -88t108 -37q100 0 180 74q35 33 44.5 65.5t9.5 86.5v41zM201 489h829v-129h-829v129z" />
<glyph unicode="&#xab;" d="M610 600l361 350l92 -98l-287 -281l303 -331l-94 -95l-375 400v55zM180 600l361 350l92 -98l-287 -281l303 -331l-94 -95l-375 400v55z" />
<glyph unicode="&#xac;" d="M238 823h766v-450h-152v301h-614v149z" />
<glyph unicode="&#xad;" d="M188 825h854v-157h-854v157z" />
<glyph unicode="&#xae;" d="M627.5 45q-236.5 0 -405.5 176t-169 428q0 254 169 431t407 177q236 0 404.5 -176t168.5 -430q0 -252 -169 -429t-405.5 -177zM162 651q0 -211 138 -357.5t330.5 -146.5t331 146.5t138.5 359.5q0 211 -138.5 357.5t-331 146.5t-330.5 -147.5t-138 -358.5zM389 315v693 h223q109 0 164 -23q57 -27 90 -75t33 -103q0 -63 -39 -114.5t-100 -67.5l153 -297l-112 -17l-148 297h-155v-293h-109zM498 911v-209h123q86 0 122 25q47 29 48 80q0 53 -54 84q-37 20 -123 20h-116z" />
<glyph unicode="&#xaf;" d="M313 1475h602v-134h-602v134z" />
<glyph unicode="&#xb0;" d="M948 1197q0 -132 -94 -225t-226 -93t-226.5 93t-94.5 225t94.5 225.5t226.5 93.5t226 -93.5t94 -225.5zM629.5 1391q-72.5 0 -124.5 -55.5t-52 -135.5t52 -135t124.5 -55t125 55t52.5 135t-52.5 135.5t-125 55.5z" />
<glyph unicode="&#xb1;" d="M129 190h977v-149h-977v149zM547 1364h149v-406h406v-145h-406v-444h-149v444h-420v145h420v406z" />
<glyph unicode="&#xb2;" d="M285 1315q53 92 146 144t202 52q139 0 228 -77.5t89 -186.5q0 -119 -110 -221q-25 -25 -153 -118t-206 -179h432q14 0 25 10q18 14 33 11v-150h-664v105q45 63 107.5 126.5t101.5 96.5t101.5 81t66.5 52q123 100 123 184q0 59 -48 102.5t-130 43.5q-66 0 -121 -29 t-90 -72q-6 -8 -12.5 -24.5t-10.5 -24.5z" />
<glyph unicode="&#xb3;" d="M633 1513q129 0 219 -75.5t90 -177.5q0 -66 -37 -117t-96 -70q76 -14 125 -71.5t49 -131.5q0 -115 -107.5 -194.5t-250.5 -79.5q-96 0 -185.5 40t-152.5 114l110 122q10 -10 16.5 -32.5t16.5 -32.5q80 -78 197 -78q88 0 148.5 45t60.5 109q0 20 -7.5 39.5t-28 42 t-64.5 36t-107 13.5q-37 0 -72 -4v118q25 -2 47 -2q106 0 152.5 36t46.5 87q0 55 -50.5 97.5t-127.5 42.5q-61 0 -120 -29t-102 -82l-86 88q59 70 142.5 108.5t173.5 38.5z" />
<glyph unicode="&#xb4;" d="M713 1659l149 -100l-239 -320l-119 72z" />
<glyph unicode="&#xb5;" d="M78 -395q0 131 23.5 425t23.5 449v604h156v-643q0 -133 34 -204q31 -63 83.5 -98.5t111.5 -35.5q63 0 121.5 42t89.5 114q31 70 31 197v628h151v-809q0 -80 21 -114q27 -47 73 -47q74 0 127 106l4 8l64 -121q-37 -57 -91 -94t-118 -37q-74 0 -129 53.5t-66 131.5 q-41 -86 -119.5 -136.5t-170.5 -50.5q-88 0 -161 46.5t-110 123.5q0 -268 -2 -538h-147z" />
<glyph unicode="&#xb6;" d="M1055 1579v-1741h-137v1606h-181v-1606h-141v926q-180 12 -302 132t-122 282q0 111 63.5 206t180.5 146q53 23 118.5 34t107.5 13t116 2h297z" />
<glyph unicode="&#xb7;" d="M727 785.5q0 -56.5 -41 -96.5t-99.5 -40t-99.5 40t-41 96.5t41 96.5t99.5 40t99.5 -40t41 -96.5z" />
<glyph unicode="&#xb8;" d="M641 0h102l-12 -113l39 -2q61 -4 92 -18q70 -35 70 -111q0 -70 -67.5 -123t-190.5 -53q-156 0 -281 88l60 99q104 -84 235 -84q61 0 85 18t24 39q0 27 -27 41q-25 16 -86 16h-70z" />
<glyph unicode="&#xb9;" d="M729 1501v-901h-151v713l-230 -60l-39 74l318 174h102z" />
<glyph unicode="&#xba;" d="M618 1477q139 0 242 -111t103 -311q0 -111 -32 -199t-83 -140t-114.5 -80t-129.5 -28q-147 0 -251.5 115t-104.5 303q0 199 108 325t262 126zM391 1036q0 -139 64.5 -215t150.5 -76t150.5 75t64.5 216q0 145 -63.5 226t-151.5 81t-151.5 -81t-63.5 -226zM201 489h829 v-129h-829v129z" />
<glyph unicode="&#xbb;" d="M649 600l-360 350l-92 -98l286 -281l-303 -331l94 -95l375 400v55zM1079 600l-360 350l-92 -98l286 -281l-303 -331l95 -95l374 400v55z" />
<glyph unicode="&#xbc;" d="M201 -39l743 1616l113 -64l-746 -1613zM956 573h74v-464h119v-91h-119v-184h-108v186h-347v66zM924 389l-224 -280h224v280zM362 1608v-721h-120v569l-183 -47l-32 59l254 140h81z" />
<glyph unicode="&#xbd;" d="M201 -39l743 1616l113 -64l-746 -1613zM639 399q43 74 117.5 116t163.5 42q111 0 182.5 -62.5t71.5 -150.5q0 -94 -91 -176q-20 -18 -122.5 -93t-163.5 -145h346q12 0 20 9q14 12 25 8v-119h-531v82q37 51 87.5 102t80.5 77l81 65l55 43q98 78 98 147q0 47 -39 81 t-105 34q-104 0 -167 -80q-6 -6 -10.5 -19.5t-8.5 -19.5zM362 1608v-721h-120v569l-183 -47l-32 59l254 140h81z" />
<glyph unicode="&#xbe;" d="M213 -39l743 1616l113 -64l-745 -1613zM319 1622q104 0 176 -60.5t72 -142.5q0 -53 -29.5 -93t-76.5 -56q59 -10 99 -56.5t40 -105.5q0 -92 -86 -155.5t-201 -63.5q-162 0 -270 123l88 98q8 -8 13.5 -26.5t13.5 -26.5q63 -61 157 -62q70 0 119 36t49 87q0 16 -6 31.5 t-22.5 33t-52 29t-87.5 11.5q-29 0 -55 -4v96q18 -2 37 -2q84 0 121 28.5t37 69.5q0 43 -40 77t-102 34q-106 0 -176 -88l-69 71q99 117 251 117zM956 573h74v-464h119v-91h-119v-184h-108v186h-347v66zM924 389l-224 -280h224v280z" />
<glyph unicode="&#xbf;" d="M451 1442.5q0 56.5 40.5 96.5t99 40t99.5 -40t41 -96.5t-41 -96t-99.5 -39.5t-99 39.5t-40.5 96zM1059 217q-76 -117 -199 -182.5t-258 -65.5q-195 0 -308.5 122t-113.5 296q0 53 13.5 101.5t30 81t46 67.5t49 52.5t53.5 44.5l44 36q66 59 84 112.5t18 129.5v98h156v-98 q0 -96 -19.5 -162t-91.5 -143l-47 -49q-37 -38 -54.5 -60.5t-44 -60t-37.5 -77.5t-11 -85q0 -104 71.5 -177t177.5 -73q90 0 177.5 55.5t142.5 149.5z" />
<glyph unicode="&#xc0;" d="M451 1878l-95 -166l402 -145l55 98zM55 -2l523 1507h18l571 -1505h-172l-164 432h-469l-143 -434h-164zM795 561l-209 563l-191 -563h400z" />
<glyph unicode="&#xc1;" d="M752 1878l94 -166l-402 -145l-55 98zM55 -2l523 1507h18l571 -1505h-172l-164 432h-469l-143 -434h-164zM795 561l-209 563l-191 -563h400z" />
<glyph unicode="&#xc2;" d="M262 1642l311 236h52l293 -231l-78 -91l-246 168l-264 -161zM55 -2l523 1507h18l571 -1505h-172l-164 432h-469l-143 -434h-164zM795 561l-209 563l-191 -563h400z" />
<glyph unicode="&#xc3;" d="M332 1622l-107 76q129 205 269 205q43 0 86 -21.5t60 -37t44 -42.5q72 -76 119 -76q16 0 29.5 5.5t28.5 20.5l24 24q8 8 27.5 36.5t27.5 38.5l88 -94q-70 -88 -122 -128t-111 -40q-47 0 -92.5 28t-75 61.5t-67.5 61t-73 27.5q-43 0 -73.5 -31.5t-81.5 -113.5zM55 -2 l523 1507h18l571 -1505h-172l-164 432h-469l-143 -434h-164zM795 561l-209 563l-191 -563h400z" />
<glyph unicode="&#xc4;" d="M500 1752q0 -50 -35 -85t-85 -35t-85 35t-35 85t35 85t85 35t85 -35t35 -85zM922 1752q0 -50 -35 -85t-84 -35t-84 35t-35 85t35 85t84 35t84 -35t35 -85zM55 -2l523 1507h18l571 -1505h-172l-164 432h-469l-143 -434h-164zM795 561l-209 563l-191 -563h400z" />
<glyph unicode="&#xc5;" d="M807 1677q0 -86 -63.5 -147.5t-153.5 -61.5t-153.5 61.5t-63.5 147.5t63.5 147.5t153.5 61.5t153.5 -61.5t63.5 -147.5zM494 1679q0 -45 28.5 -76.5t69.5 -31.5t69.5 31.5t28.5 76.5t-28.5 77t-69.5 32t-69.5 -32t-28.5 -77zM55 -2l523 1507h18l571 -1505h-172l-164 432 h-469l-143 -434h-164zM795 561l-209 563l-191 -563h400z" />
<glyph unicode="&#xc6;" d="M496 1481h673v-148h-411l4 -485h346v-152h-344l4 -549h395v-147h-545v401h-309l-127 -401h-151zM618 1333h-26l-248 -794h274v794z" />
<glyph unicode="&#xc7;" d="M641 0h102l-12 -113l39 -2q61 -4 92 -18q70 -35 70 -111q0 -70 -67.5 -123t-190.5 -53q-156 0 -281 88l60 99q104 -84 235 -84q61 0 85 18t24 39q0 27 -27 41q-25 16 -86 16h-70zM680 1491q147 0 270 -80t183 -213l-158 -78q-10 8 -10 23v10v8q0 10 -9 25 q-45 80 -120.5 126t-161.5 46q-166 0 -280.5 -165t-114.5 -448q0 -289 118.5 -457.5t290.5 -168.5q88 0 169 48t132 132l123 -80q-70 -113 -185.5 -178.5t-248.5 -65.5q-78 0 -152.5 22.5t-149.5 79t-132.5 140.5t-92 216t-34.5 298q0 170 36.5 305t94 218t134.5 138.5 t149.5 77t148.5 21.5z" />
<glyph unicode="&#xc8;" d="M451 1878l-95 -166l402 -145l55 98zM160 1481h907v-148h-750v-485h619v-152h-619v-549h744v-147h-901v1481z" />
<glyph unicode="&#xc9;" d="M793 1878l94 -166l-402 -145l-55 98zM160 1481h907v-148h-750v-485h619v-152h-619v-549h744v-147h-901v1481z" />
<glyph unicode="&#xca;" d="M283 1642l311 236h51l293 -231l-78 -91l-246 168l-264 -161zM160 1481h907v-148h-750v-485h619v-152h-619v-549h744v-147h-901v1481z" />
<glyph unicode="&#xcb;" d="M516 1752q0 -50 -35 -85t-85 -35t-85 35t-35 85t35 85t85 35t85 -35t35 -85zM938 1752q0 -50 -35 -85t-84 -35t-84 35t-35 85t35 85t84 35t84 -35t35 -85zM160 1481h907v-148h-750v-485h619v-152h-619v-549h744v-147h-901v1481z" />
<glyph unicode="&#xcc;" d="M451 1878l-95 -166l402 -145l55 98zM229 1479h734v-140h-293v-1204h307v-137h-764v139h291v1202h-275v140z" />
<glyph unicode="&#xcd;" d="M793 1878l94 -166l-402 -145l-55 98zM229 1479h734v-140h-293v-1204h307v-137h-764v139h291v1202h-275v140z" />
<glyph unicode="&#xce;" d="M260 1642l311 236h52l292 -231l-77 -91l-246 168l-264 -161zM229 1479h734v-140h-293v-1204h307v-137h-764v139h291v1202h-275v140z" />
<glyph unicode="&#xcf;" d="M508 1752q0 -50 -35 -85t-85 -35t-85 35t-35 85t35 85t85 35t85 -35t35 -85zM930 1752q0 -50 -35 -85t-84 -35t-84 35t-35 85t35 85t84 35t84 -35t35 -85zM229 1479h734v-140h-293v-1204h307v-137h-764v139h291v1202h-275v140z" />
<glyph unicode="&#xd0;" d="M207 1479h332q109 0 185.5 -17.5t147.5 -70.5q127 -94 190.5 -267.5t63.5 -375.5q0 -244 -91 -435.5t-257 -269.5q-98 -45 -268 -45h-303v1481zM360 1339v-1204h142q78 0 134 11.5t114 50.5q104 72 160.5 212t56.5 318q0 299 -125 471q-35 47 -76 79t-86 44t-76 15t-76 3 h-168zM92 852h516v-137h-516v137z" />
<glyph unicode="&#xd1;" d="M342 1622l-106 76q129 205 268 205q43 0 86 -21.5t60.5 -37t43.5 -42.5q72 -76 119 -76q16 0 29.5 5.5t28.5 20.5l24 24q8 8 27.5 36.5t27.5 38.5l88 -94q-70 -88 -122 -128t-111 -40q-47 0 -92 28t-75 61.5t-68 61t-72 27.5q-43 0 -74 -31.5t-82 -113.5zM139 0v1479h162 l621 -1096v1098h176q2 -14 -6 -31q-10 -18 -11 -33v-1419h-131l-651 1165v-1163h-160z" />
<glyph unicode="&#xd2;" d="M451 1878l-95 -166l402 -145l55 98zM1139 737q0 -295 -88 -473q-70 -141 -185.5 -214t-242.5 -73q-72 0 -142.5 23t-142.5 80t-126 141t-88 218t-34 302t35 301.5t89 216t126 138t141.5 77t141.5 21.5q127 0 241.5 -70.5t184.5 -207.5q90 -179 90 -480zM614 1339 q-61 0 -121.5 -29.5t-115.5 -92t-89 -180t-34 -273.5q0 -168 34 -295t90 -195.5t117.5 -101.5t129.5 -33q82 0 157.5 49.5t124.5 151.5q66 139 66 375q0 248 -58 391q-49 119 -131 176t-170 57z" />
<glyph unicode="&#xd3;" d="M793 1878l94 -166l-402 -145l-55 98zM1139 737q0 -295 -88 -473q-70 -141 -185.5 -214t-242.5 -73q-72 0 -142.5 23t-142.5 80t-126 141t-88 218t-34 302t35 301.5t89 216t126 138t141.5 77t141.5 21.5q127 0 241.5 -70.5t184.5 -207.5q90 -179 90 -480zM614 1339 q-61 0 -121.5 -29.5t-115.5 -92t-89 -180t-34 -273.5q0 -168 34 -295t90 -195.5t117.5 -101.5t129.5 -33q82 0 157.5 49.5t124.5 151.5q66 139 66 375q0 248 -58 391q-49 119 -131 176t-170 57z" />
<glyph unicode="&#xd4;" d="M289 1642l311 236h51l293 -231l-78 -91l-245 168l-265 -161zM1139 737q0 -295 -88 -473q-70 -141 -185.5 -214t-242.5 -73q-72 0 -142.5 23t-142.5 80t-126 141t-88 218t-34 302t35 301.5t89 216t126 138t141.5 77t141.5 21.5q127 0 241.5 -70.5t184.5 -207.5 q90 -179 90 -480zM614 1339q-61 0 -121.5 -29.5t-115.5 -92t-89 -180t-34 -273.5q0 -168 34 -295t90 -195.5t117.5 -101.5t129.5 -33q82 0 157.5 49.5t124.5 151.5q66 139 66 375q0 248 -58 391q-49 119 -131 176t-170 57z" />
<glyph unicode="&#xd5;" d="M342 1622l-106 76q129 205 268 205q43 0 86 -21.5t60.5 -37t43.5 -42.5q72 -76 119 -76q16 0 29.5 5.5t28.5 20.5l24 24q8 8 27.5 36.5t27.5 38.5l88 -94q-70 -88 -122 -128t-111 -40q-47 0 -92 28t-75 61.5t-68 61t-72 27.5q-43 0 -74 -31.5t-82 -113.5zM1139 737 q0 -295 -88 -473q-70 -141 -185.5 -214t-242.5 -73q-72 0 -142.5 23t-142.5 80t-126 141t-88 218t-34 302t35 301.5t89 216t126 138t141.5 77t141.5 21.5q127 0 241.5 -70.5t184.5 -207.5q90 -179 90 -480zM614 1339q-61 0 -121.5 -29.5t-115.5 -92t-89 -180t-34 -273.5 q0 -168 34 -295t90 -195.5t117.5 -101.5t129.5 -33q82 0 157.5 49.5t124.5 151.5q66 139 66 375q0 248 -58 391q-49 119 -131 176t-170 57z" />
<glyph unicode="&#xd6;" d="M516 1752q0 -50 -35 -85t-85 -35t-85 35t-35 85t35 85t85 35t85 -35t35 -85zM938 1752q0 -50 -35 -85t-84 -35t-84 35t-35 85t35 85t84 35t84 -35t35 -85zM1139 737q0 -295 -88 -473q-70 -141 -185.5 -214t-242.5 -73q-72 0 -142.5 23t-142.5 80t-126 141t-88 218 t-34 302t35 301.5t89 216t126 138t141.5 77t141.5 21.5q127 0 241.5 -70.5t184.5 -207.5q90 -179 90 -480zM614 1339q-61 0 -121.5 -29.5t-115.5 -92t-89 -180t-34 -273.5q0 -168 34 -295t90 -195.5t117.5 -101.5t129.5 -33q82 0 157.5 49.5t124.5 151.5q66 139 66 375 q0 248 -58 391q-49 119 -131 176t-170 57z" />
<glyph unicode="&#xd7;" d="M928 1194l112 -104l-307 -318l301 -319l-110 -109l-299 315l-297 -305l-107 105l299 311l-299 315l113 109l295 -311z" />
<glyph unicode="&#xd8;" d="M614 1339q-61 0 -121.5 -29.5t-115.5 -92t-89 -180t-34 -273.5q0 -260 80 -420l485 909q-90 86 -205 86zM1139 737q0 -295 -88 -473q-70 -141 -185.5 -214t-242.5 -73q-150 0 -275 95l-119 -222l-123 64l140 260q-156 205 -156 567q0 168 35 301.5t89 216t126 138 t141.5 77t141.5 21.5q152 0 274 -94l109 205l127 -68l-132 -246q27 -35 48 -75q90 -179 90 -480zM909 1120l-483 -901q88 -80 199 -80q82 0 157.5 49.5t124.5 151.5q66 139 66 375q0 248 -58 391z" />
<glyph unicode="&#xd9;" d="M451 1878l-95 -166l402 -145l55 98zM139 1479h187q2 -6 2 -13q0 -10 -15 -32q-10 -12 -10 -31v-895q0 -141 35 -217q39 -84 115.5 -130t167.5 -46q90 0 165.5 45t114.5 129q39 78 39 225v965h158v-961q0 -100 -10.5 -172t-49.5 -141q-61 -113 -173.5 -172.5t-248.5 -59.5 q-133 0 -246.5 59.5t-172.5 170.5q-37 70 -47.5 139.5t-10.5 167.5v969z" />
<glyph unicode="&#xda;" d="M793 1878l94 -166l-402 -145l-55 98zM139 1479h187q2 -6 2 -13q0 -10 -15 -32q-10 -12 -10 -31v-895q0 -141 35 -217q39 -84 115.5 -130t167.5 -46q90 0 165.5 45t114.5 129q39 78 39 225v965h158v-961q0 -100 -10.5 -172t-49.5 -141q-61 -113 -173.5 -172.5 t-248.5 -59.5q-133 0 -246.5 59.5t-172.5 170.5q-37 70 -47.5 139.5t-10.5 167.5v969z" />
<glyph unicode="&#xdb;" d="M289 1642l311 236h51l293 -231l-78 -91l-245 168l-265 -161zM139 1479h187q2 -6 2 -13q0 -10 -15 -32q-10 -12 -10 -31v-895q0 -141 35 -217q39 -84 115.5 -130t167.5 -46q90 0 165.5 45t114.5 129q39 78 39 225v965h158v-961q0 -100 -10.5 -172t-49.5 -141 q-61 -113 -173.5 -172.5t-248.5 -59.5q-133 0 -246.5 59.5t-172.5 170.5q-37 70 -47.5 139.5t-10.5 167.5v969z" />
<glyph unicode="&#xdc;" d="M537 1752q0 -50 -35 -85t-85 -35t-85 35t-35 85t35 85t85 35t85 -35t35 -85zM958 1752q0 -50 -34.5 -85t-83.5 -35t-84 35t-35 85t35 85t84 35t83.5 -35t34.5 -85zM139 1479h187q2 -6 2 -13q0 -10 -15 -32q-10 -12 -10 -31v-895q0 -141 35 -217q39 -84 115.5 -130 t167.5 -46q90 0 165.5 45t114.5 129q39 78 39 225v965h158v-961q0 -100 -10.5 -172t-49.5 -141q-61 -113 -173.5 -172.5t-248.5 -59.5q-133 0 -246.5 59.5t-172.5 170.5q-37 70 -47.5 139.5t-10.5 167.5v969z" />
<glyph unicode="&#xdd;" d="M793 1878l94 -166l-402 -145l-55 98zM88 1481h188l363 -719l328 717h176l-420 -895v-584h-180v584z" />
<glyph unicode="&#xde;" d="M160 1479h186q2 -4 2 -11q0 -8 -14 -30q-6 -10 -6 -25v-213h282q59 0 96 -2t88.5 -14.5t96.5 -34.5q100 -51 155.5 -150.5t55.5 -215t-54.5 -213t-154.5 -148.5q-94 -47 -270 -47h-295v-375h-168v1479zM328 1044v-524h301q113 0 172 31q63 31 97 92.5t34 132.5 q0 74 -37 138.5t-102 97.5q-63 33 -183 32h-282z" />
<glyph unicode="&#xdf;" d="M152 0v1004q0 70 2 111.5t13 103t34 112.5q53 121 158.5 188.5t228.5 67.5q178 0 304 -124t126 -294q0 -102 -50 -187t-139 -130q133 -41 213 -157.5t80 -266.5q0 -193 -126 -323t-310 -130q-133 0 -246 74l84 133q70 -55 160 -55q115 0 198 87t83 214q0 92 -43 170 t-113 121q-76 47 -209 47h-72v135h68q68 0 109 19q68 31 109.5 100.5t41.5 153.5q0 117 -75.5 196.5t-182.5 79.5q-133 0 -215 -119q-33 -45 -48.5 -106.5t-18.5 -104.5t-3 -112v-1008h-161z" />
<glyph unicode="&#xe0;" d="M598 1659l-149 -100l239 -320l119 72zM236 956q147 152 387 152q127 0 225 -46t151 -134q35 -55 44.5 -114.5t9.5 -141.5v-672h-162v119q-178 -145 -389 -146q-164 0 -264.5 91.5t-100.5 216.5q0 96 62.5 180t185.5 129q63 25 154.5 36t145.5 12t169 1h35v39 q0 129 -35 186q-63 104 -223 105q-197 0 -312 -121zM895 508h-39q-12 0 -85 1t-103.5 0t-81.5 -5t-86 -12q-96 -23 -143.5 -79.5t-47.5 -121.5q0 -76 61.5 -131.5t166.5 -55.5q92 0 166.5 41t117.5 86q35 37 52.5 78t19.5 64.5t2 62.5v72z" />
<glyph unicode="&#xe1;" d="M713 1659l149 -100l-239 -320l-119 72zM236 956q147 152 387 152q127 0 225 -46t151 -134q35 -55 44.5 -114.5t9.5 -141.5v-672h-162v119q-178 -145 -389 -146q-164 0 -264.5 91.5t-100.5 216.5q0 96 62.5 180t185.5 129q63 25 154.5 36t145.5 12t169 1h35v39 q0 129 -35 186q-63 104 -223 105q-197 0 -312 -121zM895 508h-39q-12 0 -85 1t-103.5 0t-81.5 -5t-86 -12q-96 -23 -143.5 -79.5t-47.5 -121.5q0 -76 61.5 -131.5t166.5 -55.5q92 0 166.5 41t117.5 86q35 37 52.5 78t19.5 64.5t2 62.5v72z" />
<glyph unicode="&#xe2;" d="M354 1292l264 334h52l262 -336l-111 -82l-184 244l-193 -242zM236 956q147 152 387 152q127 0 225 -46t151 -134q35 -55 44.5 -114.5t9.5 -141.5v-672h-162v119q-178 -145 -389 -146q-164 0 -264.5 91.5t-100.5 216.5q0 96 62.5 180t185.5 129q63 25 154.5 36t145.5 12 t169 1h35v39q0 129 -35 186q-63 104 -223 105q-197 0 -312 -121zM895 508h-39q-12 0 -85 1t-103.5 0t-81.5 -5t-86 -12q-96 -23 -143.5 -79.5t-47.5 -121.5q0 -76 61.5 -131.5t166.5 -55.5q92 0 166.5 41t117.5 86q35 37 52.5 78t19.5 64.5t2 62.5v72z" />
<glyph unicode="&#xe3;" d="M365 1323l-107 76q129 205 268 205q43 0 86 -21.5t60.5 -37t44.5 -42.5q72 -76 119 -76q16 0 29.5 5.5t28.5 20.5l24 24q8 8 27.5 36.5t27.5 38.5l88 -94q-70 -88 -122 -128t-112 -40q-47 0 -92 28t-74.5 61.5t-67.5 61t-73 27.5q-43 0 -73.5 -31.5t-81.5 -113.5z M236 956q147 152 387 152q127 0 225 -46t151 -134q35 -55 44.5 -114.5t9.5 -141.5v-672h-162v119q-178 -145 -389 -146q-164 0 -264.5 91.5t-100.5 216.5q0 96 62.5 180t185.5 129q63 25 154.5 36t145.5 12t169 1h35v39q0 129 -35 186q-63 104 -223 105q-197 0 -312 -121z M895 508h-39q-12 0 -85 1t-103.5 0t-81.5 -5t-86 -12q-96 -23 -143.5 -79.5t-47.5 -121.5q0 -76 61.5 -131.5t166.5 -55.5q92 0 166.5 41t117.5 86q35 37 52.5 78t19.5 64.5t2 62.5v72z" />
<glyph unicode="&#xe4;" d="M557 1457q0 -50 -35 -85t-85 -35t-85 35t-35 85t35 85t85 35t85 -35t35 -85zM979 1457q0 -50 -35 -85t-84 -35t-84 35t-35 85t35 85t84 35t84 -35t35 -85zM236 956q147 152 387 152q127 0 225 -46t151 -134q35 -55 44.5 -114.5t9.5 -141.5v-672h-162v119 q-178 -145 -389 -146q-164 0 -264.5 91.5t-100.5 216.5q0 96 62.5 180t185.5 129q63 25 154.5 36t145.5 12t169 1h35v39q0 129 -35 186q-63 104 -223 105q-197 0 -312 -121zM895 508h-39q-12 0 -85 1t-103.5 0t-81.5 -5t-86 -12q-96 -23 -143.5 -79.5t-47.5 -121.5 q0 -76 61.5 -131.5t166.5 -55.5q92 0 166.5 41t117.5 86q35 37 52.5 78t19.5 64.5t2 62.5v72z" />
<glyph unicode="&#xe5;" d="M846 1436q0 -86 -63.5 -147.5t-153.5 -61.5t-153.5 61.5t-63.5 147.5t63.5 147.5t153.5 61.5t153.5 -61.5t63.5 -147.5zM532 1438q0 -45 29 -77t70 -32t69.5 32t28.5 77t-28.5 76.5t-69.5 31.5t-70 -31.5t-29 -76.5zM236 956q147 152 387 152q127 0 225 -46t151 -134 q35 -55 44.5 -114.5t9.5 -141.5v-672h-162v119q-178 -145 -389 -146q-164 0 -264.5 91.5t-100.5 216.5q0 96 62.5 180t185.5 129q63 25 154.5 36t145.5 12t169 1h35v39q0 129 -35 186q-63 104 -223 105q-197 0 -312 -121zM895 508h-39q-12 0 -85 1t-103.5 0t-81.5 -5 t-86 -12q-96 -23 -143.5 -79.5t-47.5 -121.5q0 -76 61.5 -131.5t166.5 -55.5q92 0 166.5 41t117.5 86q35 37 52.5 78t19.5 64.5t2 62.5v72z" />
<glyph unicode="&#xe6;" d="M94 977q49 63 122 97t153 34q86 0 155.5 -40t108.5 -107q39 68 106.5 107.5t143.5 39.5q68 0 132 -35t105 -104q31 -47 45.5 -111.5t16.5 -105.5t2 -115v-90l-494 -21v-110q0 -100 25 -156q31 -68 90 -107.5t131 -39.5q111 0 174 86l84 -99q-106 -127 -270 -127 q-92 0 -171 44t-128 120q-39 -76 -111 -120t-158 -44q-129 0 -220 93.5t-91 226.5q0 98 55.5 185t161.5 136q88 39 230 45l53 3v61q0 78 -17 123q-20 59 -67 94t-105 35q-49 0 -97 -27.5t-81 -75.5zM545 520l-51 -2q-125 -4 -185 -35q-55 -29 -83.5 -78t-28.5 -102 q0 -78 52 -131t124 -53q51 0 94 28.5t63 81.5q6 16 9.5 33t4.5 39.5t1 36.5v46v46v90zM690 662l357 14v47q0 96 -23 147q-20 49 -59 77t-84 28q-86 0 -146 -88q-45 -68 -45 -185v-40z" />
<glyph unicode="&#xe7;" d="M641 0h102l-12 -113l39 -2q61 -4 92 -18q70 -35 70 -111q0 -70 -67.5 -123t-190.5 -53q-156 0 -281 88l60 99q104 -84 235 -84q61 0 85 18t24 39q0 27 -27 41q-25 16 -86 16h-70zM1104 905l-121 -141q-10 8 -11 28.5t-4 26.5t-13.5 19.5t-35 35t-55 41t-78 33t-98.5 13.5 q-154 0 -256 -110t-102 -292q0 -188 106.5 -309t265.5 -121q172 0 287 131l98 -115q-78 -84 -181 -128t-218 -44q-231 0 -382.5 162t-151.5 406.5t153.5 404.5t390.5 160q129 0 234.5 -53.5t171.5 -147.5z" />
<glyph unicode="&#xe8;" d="M598 1659l-149 -100l239 -320l119 72zM635 1110q70 0 135.5 -19.5t125.5 -62.5t105.5 -121t61.5 -182q18 -100 8 -207h-770q6 -115 43 -198.5t93.5 -125.5t113.5 -61.5t119 -19.5q172 0 280 123l94 -93q-139 -168 -389 -168q-227 0 -373.5 145.5t-146.5 409.5 q0 143 41 256t111.5 182.5t159 105.5t188.5 36zM307 649h596q16 133 -66.5 231.5t-213.5 98.5q-47 0 -94.5 -16.5t-94.5 -52.5t-81 -103.5t-46 -157.5z" />
<glyph unicode="&#xe9;" d="M713 1659l149 -100l-239 -320l-119 72zM635 1110q70 0 135.5 -19.5t125.5 -62.5t105.5 -121t61.5 -182q18 -100 8 -207h-770q6 -115 43 -198.5t93.5 -125.5t113.5 -61.5t119 -19.5q172 0 280 123l94 -93q-139 -168 -389 -168q-227 0 -373.5 145.5t-146.5 409.5 q0 143 41 256t111.5 182.5t159 105.5t188.5 36zM307 649h596q16 133 -66.5 231.5t-213.5 98.5q-47 0 -94.5 -16.5t-94.5 -52.5t-81 -103.5t-46 -157.5z" />
<glyph unicode="&#xea;" d="M338 1292l264 334h51l262 -336l-110 -82l-184 244l-193 -242zM635 1110q70 0 135.5 -19.5t125.5 -62.5t105.5 -121t61.5 -182q18 -100 8 -207h-770q6 -115 43 -198.5t93.5 -125.5t113.5 -61.5t119 -19.5q172 0 280 123l94 -93q-139 -168 -389 -168q-227 0 -373.5 145.5 t-146.5 409.5q0 143 41 256t111.5 182.5t159 105.5t188.5 36zM307 649h596q16 133 -66.5 231.5t-213.5 98.5q-47 0 -94.5 -16.5t-94.5 -52.5t-81 -103.5t-46 -157.5z" />
<glyph unicode="&#xeb;" d="M530 1457q0 -50 -34.5 -85t-85 -35t-85 35t-34.5 85t34.5 85t85 35t85 -35t34.5 -85zM952 1457q0 -50 -34.5 -85t-84 -35t-84 35t-34.5 85t34.5 85t84 35t84 -35t34.5 -85zM635 1110q70 0 135.5 -19.5t125.5 -62.5t105.5 -121t61.5 -182q18 -100 8 -207h-770 q6 -115 43 -198.5t93.5 -125.5t113.5 -61.5t119 -19.5q172 0 280 123l94 -93q-139 -168 -389 -168q-227 0 -373.5 145.5t-146.5 409.5q0 143 41 256t111.5 182.5t159 105.5t188.5 36zM307 649h596q16 133 -66.5 231.5t-213.5 98.5q-47 0 -94.5 -16.5t-94.5 -52.5t-81 -103.5 t-46 -157.5z" />
<glyph unicode="&#xec;" d="M496 1659l-150 -100l240 -320l119 72zM272 1085h435v-948h254v-137h-703v137h277v809h-263v139z" />
<glyph unicode="&#xed;" d="M713 1659l149 -100l-239 -320l-119 72zM272 1085h435v-948h254v-137h-703v137h277v809h-263v139z" />
<glyph unicode="&#xee;" d="M309 1292l264 334h52l262 -336l-111 -82l-184 244l-193 -242zM272 1085h435v-948h254v-137h-703v137h277v809h-263v139z" />
<glyph unicode="&#xef;" d="M522 1457q0 -50 -34.5 -85t-85 -35t-85 35t-34.5 85t34.5 85t85 35t85 -35t34.5 -85zM944 1457q0 -50 -35 -85t-84 -35t-83.5 35t-34.5 85t34.5 85t83.5 35t84 -35t35 -85zM272 1085h435v-948h254v-137h-703v137h277v809h-263v139z" />
<glyph unicode="&#xf0;" d="M625 963q-131 0 -229.5 -107.5t-98.5 -304.5q0 -199 97.5 -315.5t232.5 -116.5q55 0 106 22.5t99.5 68.5t78 134t29.5 207q0 117 -30.5 202t-81 128t-101.5 62.5t-102 19.5zM844 1354q268 -305 268 -754q0 -254 -92 -405q-63 -109 -167.5 -166.5t-223.5 -57.5 q-211 0 -361.5 159t-150.5 398q0 242 146.5 411t346.5 169q170 0 285 -123q-72 182 -203 326l-303 -86l-43 112l246 68q-111 92 -242 151l193 39q113 -63 207 -147l256 70l41 -107z" />
<glyph unicode="&#xf1;" d="M330 1323l-107 76q129 205 269 205q43 0 86 -21.5t60 -37t44 -42.5q72 -76 119 -76q16 0 29.5 5.5t28.5 20.5l24 24q8 8 27.5 36.5t27.5 38.5l88 -94q-70 -88 -122 -128t-111 -40q-47 0 -92.5 28t-75 61.5t-67.5 61t-73 27.5q-43 0 -73.5 -31.5t-81.5 -113.5zM182 0v1083 h174v-190q63 96 158.5 156.5t202.5 60.5q94 0 171 -50t118 -140q39 -90 38 -263v-657h-167v653q0 51 -2.5 83t-16.5 78t-41 79q-57 70 -147 70q-76 0 -147.5 -49.5t-112.5 -102.5q-53 -72 -54 -186v-625h-174z" />
<glyph unicode="&#xf2;" d="M598 1659l-149 -100l239 -320l119 72zM1112 537q0 -258 -142.5 -412t-344.5 -154q-209 0 -358.5 160t-149.5 404q0 246 150.5 409.5t361.5 163.5q94 0 180 -37t154.5 -106.5t108.5 -180t40 -247.5zM618 963q-133 0 -227 -112t-94 -302q0 -195 97.5 -312.5t232.5 -117.5 q127 0 220 108.5t93 302.5q0 209 -96.5 321t-225.5 112z" />
<glyph unicode="&#xf3;" d="M713 1659l149 -100l-239 -320l-119 72zM1112 537q0 -258 -142.5 -412t-344.5 -154q-209 0 -358.5 160t-149.5 404q0 246 150.5 409.5t361.5 163.5q94 0 180 -37t154.5 -106.5t108.5 -180t40 -247.5zM618 963q-133 0 -227 -112t-94 -302q0 -195 97.5 -312.5t232.5 -117.5 q127 0 220 108.5t93 302.5q0 209 -96.5 321t-225.5 112z" />
<glyph unicode="&#xf4;" d="M338 1292l264 334h51l262 -336l-110 -82l-184 244l-193 -242zM1112 537q0 -258 -142.5 -412t-344.5 -154q-209 0 -358.5 160t-149.5 404q0 246 150.5 409.5t361.5 163.5q94 0 180 -37t154.5 -106.5t108.5 -180t40 -247.5zM618 963q-133 0 -227 -112t-94 -302 q0 -195 97.5 -312.5t232.5 -117.5q127 0 220 108.5t93 302.5q0 209 -96.5 321t-225.5 112z" />
<glyph unicode="&#xf5;" d="M342 1323l-106 76q129 205 268 205q43 0 86 -21.5t60.5 -37t43.5 -42.5q72 -76 119 -76q16 0 29.5 5.5t28.5 20.5l24 24q8 8 27.5 36.5t27.5 38.5l88 -94q-70 -88 -122 -128t-111 -40q-47 0 -92 28t-75 61.5t-68 61t-72 27.5q-43 0 -74 -31.5t-82 -113.5zM1112 537 q0 -258 -142.5 -412t-344.5 -154q-209 0 -358.5 160t-149.5 404q0 246 150.5 409.5t361.5 163.5q94 0 180 -37t154.5 -106.5t108.5 -180t40 -247.5zM618 963q-133 0 -227 -112t-94 -302q0 -195 97.5 -312.5t232.5 -117.5q127 0 220 108.5t93 302.5q0 209 -96.5 321 t-225.5 112z" />
<glyph unicode="&#xf6;" d="M526 1457q0 -50 -34.5 -85t-85 -35t-85 35t-34.5 85t34.5 85t85 35t85 -35t34.5 -85zM948 1457q0 -50 -34.5 -85t-84 -35t-84 35t-34.5 85t34.5 85t84 35t84 -35t34.5 -85zM1112 537q0 -258 -142.5 -412t-344.5 -154q-209 0 -358.5 160t-149.5 404q0 246 150.5 409.5 t361.5 163.5q94 0 180 -37t154.5 -106.5t108.5 -180t40 -247.5zM618 963q-133 0 -227 -112t-94 -302q0 -195 97.5 -312.5t232.5 -117.5q127 0 220 108.5t93 302.5q0 209 -96.5 321t-225.5 112z" />
<glyph unicode="&#xf7;" d="M188 825h854v-157h-854v157zM733 1108q0 -45 -30.5 -76t-75.5 -31t-76 31t-31 76t31 75.5t76 30.5t75.5 -30.5t30.5 -75.5zM733 377q0 -45 -30.5 -76t-75.5 -31t-76 31t-31 76t31 75.5t76 30.5t75.5 -30.5t30.5 -75.5z" />
<glyph unicode="&#xf8;" d="M618 963q-133 0 -227 -112t-94 -302q0 -170 80 -289l364 674q-60 29 -123 29zM1112 537q0 -258 -142.5 -412t-344.5 -154q-115 0 -219 54l-97 -177l-123 64l105 192q-174 166 -174 431q0 246 150.5 409.5t361.5 163.5q98 0 186 -39l88 162l127 -68l-94 -172 q176 -159 176 -454zM852 840l-373 -680q70 -41 148 -41q127 0 220 108.5t93 302.5q0 193 -88 310z" />
<glyph unicode="&#xf9;" d="M598 1659l-149 -100l239 -320l119 72zM170 1083h172v-604q0 -158 39 -233q31 -63 86 -98t121 -35q76 0 143.5 45t106.5 114q43 80 43 215v596h172v-985q0 -59 12 -98h-180q-6 33 -4 84l2 82q-53 -90 -143.5 -141.5t-190.5 -51.5q-109 0 -200 58.5t-138 163.5 q-43 98 -43 284z" />
<glyph unicode="&#xfa;" d="M713 1659l149 -100l-239 -320l-119 72zM170 1083h172v-604q0 -158 39 -233q31 -63 86 -98t121 -35q76 0 143.5 45t106.5 114q43 80 43 215v596h172v-985q0 -59 12 -98h-180q-6 33 -4 84l2 82q-53 -90 -143.5 -141.5t-190.5 -51.5q-109 0 -200 58.5t-138 163.5 q-43 98 -43 284z" />
<glyph unicode="&#xfb;" d="M338 1292l264 334h51l262 -336l-110 -82l-184 244l-193 -242zM170 1083h172v-604q0 -158 39 -233q31 -63 86 -98t121 -35q76 0 143.5 45t106.5 114q43 80 43 215v596h172v-985q0 -59 12 -98h-180q-6 33 -4 84l2 82q-53 -90 -143.5 -141.5t-190.5 -51.5q-109 0 -200 58.5 t-138 163.5q-43 98 -43 284z" />
<glyph unicode="&#xfc;" d="M526 1457q0 -50 -34.5 -85t-85 -35t-85 35t-34.5 85t34.5 85t85 35t85 -35t34.5 -85zM948 1457q0 -50 -34.5 -85t-84 -35t-84 35t-34.5 85t34.5 85t84 35t84 -35t34.5 -85zM170 1083h172v-604q0 -158 39 -233q31 -63 86 -98t121 -35q76 0 143.5 45t106.5 114 q43 80 43 215v596h172v-985q0 -59 12 -98h-180q-6 33 -4 84l2 82q-53 -90 -143.5 -141.5t-190.5 -51.5q-109 0 -200 58.5t-138 163.5q-43 98 -43 284z" />
<glyph unicode="&#xfd;" d="M713 1659l149 -100l-239 -320l-119 72zM129 1083h213q0 -12 -5 -27.5t-5 -23.5t4 -18l317 -799l207 582q61 170 82 288h178q-39 -127 -108 -313l-338 -895q-43 -117 -94 -172q-104 -117 -271 -117q-141 0 -235 90l88 154q8 -6 13 -21.5t5 -17.5q6 -8 18.5 -21.5t43 -28.5 t65.5 -15q86 0 152 71q39 39 76 125l34 80z" />
<glyph unicode="&#xfe;" d="M164 1577h188q0 -16 -8 -37.5t-8 -40.5v-581q55 88 146 139t196 51q84 0 159.5 -34t140 -98.5t102.5 -174t38 -246.5q0 -143 -40 -258t-105.5 -184.5t-144 -105.5t-164.5 -36q-98 0 -184.5 46t-141.5 126v-538h-174v1972zM616 963q-84 0 -152.5 -43t-98.5 -115 q-29 -68 -29 -213q0 -100 1 -142t8 -92.5t22 -85.5q31 -72 99.5 -110.5t147.5 -38.5q37 0 74 8t84 33.5t83 66.5t60.5 116t24.5 171q0 113 -24.5 198t-60.5 130t-84 72.5t-84 36t-71 8.5z" />
<glyph unicode="&#xff;" d="M526 1457q0 -50 -34.5 -85t-85 -35t-85 35t-34.5 85t34.5 85t85 35t85 -35t34.5 -85zM948 1457q0 -50 -34.5 -85t-84 -35t-84 35t-34.5 85t34.5 85t84 35t84 -35t34.5 -85zM129 1083h213q0 -12 -5 -27.5t-5 -23.5t4 -18l317 -799l207 582q61 170 82 288h178 q-39 -127 -108 -313l-338 -895q-43 -117 -94 -172q-104 -117 -271 -117q-141 0 -235 90l88 154q8 -6 13 -21.5t5 -17.5q6 -8 18.5 -21.5t43 -28.5t65.5 -15q86 0 152 71q39 39 76 125l34 80z" />
<glyph unicode="&#x152;" d="M621 1413v68h548v-148h-401v-485h340v-152h-340v-549h395v-147h-545v74q-76 -90 -194 -90q-98 0 -189.5 73.5t-138.5 227.5q-53 176 -53 456q0 334 80 521q53 125 136 181t167 56q115 0 195 -86zM195 770q0 -315 65 -477q37 -90 87 -127t97 -37q61 0 108.5 49t65.5 129 v844q-27 82 -74.5 146.5t-117.5 64.5q-55 0 -104.5 -47t-79.5 -141q-47 -140 -47 -404z" />
<glyph unicode="&#x153;" d="M403 1106q141 0 222 -109q94 109 239 109q90 0 170 -50t117 -155q8 -20 14 -43.5t10 -51.5l5 -47q2 -19 3 -54t1 -50v-54v-50v-27h-541q2 -205 35 -278q29 -68 88 -101.5t129 -33.5q133 0 215 92l84 -103q-125 -129 -303 -129q-154 0 -270 99q-104 -96 -236 -97 q-80 0 -157.5 46.5t-127.5 146.5q-66 137 -65 395q0 221 67 348q49 96 131 146.5t170 50.5zM645 659h397v21q0 51 -1 74.5t-9 63.5t-26 69q-53 90 -160 90q-53 0 -101.5 -31t-74.5 -98q-27 -74 -25 -189zM178 584q0 -182 35 -291q27 -90 80 -132t113 -42q49 0 84.5 25.5 t35.5 66.5q0 8 -8 53t-15 125t-7 172q0 76 5 143.5t10 106.5t5 49q0 45 -32.5 74t-82.5 29q-51 0 -100 -36t-80 -102q-43 -91 -43 -241z" />
<glyph unicode="&#x178;" d="M516 1752q0 -50 -35 -85t-85 -35t-85 35t-35 85t35 85t85 35t85 -35t35 -85zM938 1752q0 -50 -35 -85t-84 -35t-84 35t-35 85t35 85t84 35t84 -35t35 -85zM88 1481h188l363 -719l328 717h176l-420 -895v-584h-180v584z" />
<glyph unicode="&#x2c6;" d="M338 1292l264 334h51l262 -336l-110 -82l-184 244l-193 -242z" />
<glyph unicode="&#x2dc;" d="M342 1323l-106 76q129 205 268 205q43 0 86 -21.5t60.5 -37t43.5 -42.5q72 -76 119 -76q16 0 29.5 5.5t28.5 20.5l24 24q8 8 27.5 36.5t27.5 38.5l88 -94q-70 -88 -122 -128t-111 -40q-47 0 -92 28t-75 61.5t-68 61t-72 27.5q-43 0 -74 -31.5t-82 -113.5z" />
<glyph unicode="&#x2000;" horiz-adv-x="950" />
<glyph unicode="&#x2001;" horiz-adv-x="1902" />
<glyph unicode="&#x2002;" horiz-adv-x="950" />
<glyph unicode="&#x2003;" horiz-adv-x="1902" />
<glyph unicode="&#x2004;" horiz-adv-x="632" />
<glyph unicode="&#x2005;" horiz-adv-x="475" />
<glyph unicode="&#x2006;" horiz-adv-x="315" />
<glyph unicode="&#x2007;" horiz-adv-x="315" />
<glyph unicode="&#x2008;" horiz-adv-x="237" />
<glyph unicode="&#x2009;" horiz-adv-x="378" />
<glyph unicode="&#x200a;" horiz-adv-x="104" />
<glyph unicode="&#x2010;" d="M188 825h854v-157h-854v157z" />
<glyph unicode="&#x2011;" d="M188 825h854v-157h-854v157z" />
<glyph unicode="&#x2012;" d="M188 825h854v-157h-854v157z" />
<glyph unicode="&#x2013;" horiz-adv-x="1024" d="M188 668v157h650v-157h-650z" />
<glyph unicode="&#x2014;" horiz-adv-x="2048" d="M188 668v157h1674v-157h-1674z" />
<glyph unicode="&#x2018;" d="M412 1067q0 190 252 446l81 -71q-68 -61 -118 -148q-35 -57 -35 -98q0 -49 55 -86q66 -43 66 -104q0 -55 -39 -95.5t-99 -40.5q-66 0 -114.5 54.5t-48.5 142.5z" />
<glyph unicode="&#x2019;" d="M745 1317q0 -190 -251 -447l-82 72q68 61 118 148q35 57 35 98q0 49 -55 86q-66 43 -66 104q0 55 40 95t98 40q66 0 114.5 -54t48.5 -142z" />
<glyph unicode="&#x201a;" d="M745 47q0 -190 -251 -446l-82 71q68 61 118 148q35 57 35 98q0 49 -55 86q-66 43 -66 105q0 55 40 95t98 40q66 0 114.5 -54.5t48.5 -142.5z" />
<glyph unicode="&#x201c;" d="M657 1067q0 190 252 446l82 -71q-68 -61 -119 -148q-35 -57 -34 -98q0 -49 55 -86q66 -43 65 -104q0 -55 -38.5 -95.5t-98.5 -40.5q-66 0 -115 54.5t-49 142.5zM166 1067q0 190 252 446l82 -71q-68 -61 -119 -148q-35 -57 -35 -98q0 -49 55 -86q66 -43 66 -104 q0 -55 -39 -95.5t-98 -40.5q-66 0 -115 54.5t-49 142.5z" />
<glyph unicode="&#x201d;" d="M500 1317q0 -190 -252 -447l-82 72q68 61 119 148q35 57 34 98q0 49 -55 86q-66 43 -65 104q0 55 40 95t97 40q66 0 115 -54t49 -142zM991 1317q0 -190 -252 -447l-82 72q68 61 119 148q35 57 35 98q0 49 -55 86q-66 43 -66 104q0 55 40 95t97 40q66 0 115 -54t49 -142z " />
<glyph unicode="&#x201e;" d="M991 47q0 -190 -252 -446l-82 71q68 61 119 148q35 57 35 98q0 49 -55 86q-66 43 -66 105q0 55 40 95t97 40q66 0 115 -54.5t49 -142.5zM500 47q0 -190 -252 -446l-82 71q68 61 119 148q35 57 34 98q0 49 -55 86q-66 43 -65 105q0 55 40 95t97 40q66 0 115 -54.5 t49 -142.5z" />
<glyph unicode="&#x2022;" d="M829 703.5q0 -80.5 -59 -139t-142 -58.5t-142.5 58.5t-59.5 139t59.5 139t142.5 58.5t142 -58.5t59 -139z" />
<glyph unicode="&#x2026;" d="M1137 109.5q0 -56.5 -41 -96.5t-99.5 -40t-99.5 40t-41 96.5t41 96.5t99.5 40t99.5 -40t41 -96.5zM317 109.5q0 -56.5 -40.5 -96.5t-99 -40t-99.5 40t-41 96.5t41 96.5t99.5 40t99 -40t40.5 -96.5zM727 109.5q0 -56.5 -41 -96.5t-99.5 -40t-99.5 40t-41 96.5t41 96.5 t99.5 40t99.5 -40t41 -96.5z" />
<glyph unicode="&#x202f;" horiz-adv-x="378" />
<glyph unicode="&#x2039;" d="M365 600l360 350l92 -98l-287 -281l304 -331l-95 -95l-374 400v55z" />
<glyph unicode="&#x203a;" d="M834 600l-361 350l-92 -98l287 -281l-303 -331l94 -95l375 400v55z" />
<glyph unicode="&#x205f;" horiz-adv-x="475" />
<glyph unicode="&#x20ac;" d="M1122 1362l-59 -162q-8 8 -11 24.5t-10 24.5q-10 12 -30.5 29.5t-84 46.5t-134.5 29q-121 0 -228.5 -78t-156.5 -248q-6 -23 -11 -45h586l-51 -137h-555q-6 -66 -6 -139q0 -27 2 -52h487l-53 -137h-422q27 -145 98 -242q59 -82 142.5 -120.5t171.5 -38.5q147 0 254 96 l67 -119q-139 -121 -332 -121q-61 0 -124.5 13.5t-134 52.5t-127 97.5t-101.5 156.5t-63 225h-138l31 137h96q-2 18 -2 37q0 82 8 154h-133l31 137h121q29 133 86 234q82 145 209 208.5t256 63.5q194 0 321 -127z" />
<glyph unicode="&#x2122;" d="M588 1505v-94h-215v-651h-107v651h-203v94h525zM739 1505l170 -344l88 172l90 172h78v-745h-100v510l-72 -131l-69 -127l-39 4l-129 254v-510h-101v745h84z" />
<glyph unicode="&#xe000;" horiz-adv-x="1085" d="M0 1085h1085v-1085h-1085v1085z" />
<glyph unicode="&#xfb01;" horiz-adv-x="2457" d="M1501 1085h435v-948h254v-137h-703v137h277v809h-263v139zM1853.5 1556q51.5 0 87.5 -35.5t36 -86t-36 -86t-87.5 -35.5t-87 35.5t-35.5 86t35.5 86t87 35.5zM836 1591q209 0 331 -147l-77 -158q-6 0 -12.5 4t-6.5 17q-2 20 -8 26q-35 55 -98.5 90t-137.5 35 q-70 0 -128 -30.5t-91 -90.5q-18 -33 -27.5 -78t-10.5 -72.5t-1 -82.5v-84h355v-135h-355v-885h-163v885h-236v135h236v106q0 88 11 151.5t48 125.5q55 90 154.5 139t216.5 49z" />
<glyph unicode="&#xfb02;" horiz-adv-x="2457" d="M1450 1577h479v-1440h320v-137h-813v137h321v1303h-307v137zM836 1591q209 0 331 -147l-77 -158q-6 0 -12.5 4t-6.5 17q-2 20 -8 26q-35 55 -98.5 90t-137.5 35q-70 0 -128 -30.5t-91 -90.5q-18 -33 -27.5 -78t-10.5 -72.5t-1 -82.5v-84h355v-135h-355v-885h-163v885 h-236v135h236v106q0 88 11 151.5t48 125.5q55 90 154.5 139t216.5 49z" />
<glyph unicode="&#xfb03;" horiz-adv-x="3686" d="M2730 1085h435v-948h254v-137h-703v137h277v809h-263v139zM3082.5 1556q51.5 0 87.5 -35.5t36 -86t-36 -86t-87.5 -35.5t-87 35.5t-35.5 86t35.5 86t87 35.5zM2065 1591q209 0 331 -147l-77 -158q-6 0 -12.5 4t-6.5 17q-2 20 -8 26q-35 55 -98.5 90t-137.5 35 q-70 0 -128 -30.5t-91 -90.5q-18 -33 -27.5 -78t-10.5 -72.5t-1 -82.5v-84h355v-135h-355v-885h-163v885h-236v135h236v106q0 88 11 151.5t48 125.5q55 90 154.5 139t216.5 49zM836 1591q209 0 331 -147l-77 -158q-6 0 -12.5 4t-6.5 17q-2 20 -8 26q-35 55 -98.5 90 t-137.5 35q-70 0 -128 -30.5t-91 -90.5q-18 -33 -27.5 -78t-10.5 -72.5t-1 -82.5v-84h355v-135h-355v-885h-163v885h-236v135h236v106q0 88 11 151.5t48 125.5q55 90 154.5 139t216.5 49z" />
<glyph unicode="&#xfb04;" horiz-adv-x="3686" d="M2679 1577h479v-1440h320v-137h-813v137h321v1303h-307v137zM2065 1591q209 0 331 -147l-77 -158q-6 0 -12.5 4t-6.5 17q-2 20 -8 26q-35 55 -98.5 90t-137.5 35q-70 0 -128 -30.5t-91 -90.5q-18 -33 -27.5 -78t-10.5 -72.5t-1 -82.5v-84h355v-135h-355v-885h-163v885 h-236v135h236v106q0 88 11 151.5t48 125.5q55 90 154.5 139t216.5 49zM836 1591q209 0 331 -147l-77 -158q-6 0 -12.5 4t-6.5 17q-2 20 -8 26q-35 55 -98.5 90t-137.5 35q-70 0 -128 -30.5t-91 -90.5q-18 -33 -27.5 -78t-10.5 -72.5t-1 -82.5v-84h355v-135h-355v-885h-163 v885h-236v135h236v106q0 88 11 151.5t48 125.5q55 90 154.5 139t216.5 49z" />
</font>
</defs>
</svg>
